<svg id="wgaCanvas" style="margin:50px" xmlns="http://www.w3.org/2000/svg" width="1390" height="969.0999984741211"><g class="legendRegion" transform="translate(0,900)"><defs></defs><defs></defs><defs></defs><defs></defs><defs></defs><defs></defs><defs></defs><defs></defs><defs></defs><defs></defs><defs></defs><defs></defs><g class="legendRect" transform="translate(0,20)"></g><g class="legendArrow" transform="translate(463.3333333333333,20)"><g class="cell" style="opacity: 1;" transform="translate(0, 0)"><path class="swatch" d="M0,0L10,0L10,-5L18,5L10,15L10,10L0,10" style="fill: rgb(231, 211, 226);"></path><text class="label" transform="translate(28,10)">invertedRepeat</text></g></g><defs><linearGradient id="linkIdentityGradient" x1="0%" y1="100%" x2="100%" y2="100%" spreadMethod="pad"><stop offset="0%" stop-color="#D21414" stop-opacity="1"></stop><stop offset="50%" stop-color="#FFEE05" stop-opacity="1"></stop><stop offset="100%" stop-color="#1DAD0A" stop-opacity="1"></stop></linearGradient></defs><g class="legendLinkIdentity" transform="translate(926.6666666666666, 20)"><rect width="300" height="20" style="fill: url(#linkIdentityGradient);"></rect><g class="x axis" style="font: 10px sans-serif; fill: none; stroke: #000; shape-rendering: crispEdges;" transform="translate(0, 20)"><g class="tick" style="opacity: 1;" transform="translate(0,0)"><line y2="6" x2="0"></line><text dy=".71em" style="text-anchor: middle;" y="9" x="0">70</text></g><g class="tick" style="opacity: 1;" transform="translate(50,0)"><line y2="6" x2="0"></line><text dy=".71em" style="text-anchor: middle;" y="9" x="0">75</text></g><g class="tick" style="opacity: 1;" transform="translate(100,0)"><line y2="6" x2="0"></line><text dy=".71em" style="text-anchor: middle;" y="9" x="0">80</text></g><g class="tick" style="opacity: 1;" transform="translate(150,0)"><line y2="6" x2="0"></line><text dy=".71em" style="text-anchor: middle;" y="9" x="0">85</text></g><g class="tick" style="opacity: 1;" transform="translate(200,0)"><line y2="6" x2="0"></line><text dy=".71em" style="text-anchor: middle;" y="9" x="0">90</text></g><g class="tick" style="opacity: 1;" transform="translate(250,0)"><line y2="6" x2="0"></line><text dy=".71em" style="text-anchor: middle;" y="9" x="0">95</text></g><g class="tick" style="opacity: 1;" transform="translate(300,0)"><line y2="6" x2="0"></line><text dy=".71em" style="text-anchor: middle;" y="9" x="0">100</text></g><path class="domain" d="M0,6V0H300V6"></path><text y="20" x="150" dy=".71em" style="text-anchor: middle;">Link Identity %</text></g></g></g><clipPath id="clip"><rect id="clip-rect" x="0" y="0" width="900" height="900"></rect></clipPath><g class="alignmentRegion" clip-path="url(#clip)" transform="translate(400, 0)"><g class="tickGroup"><line class="tick" x1="0" y1="-10" x2="0" y2="40" style="stroke: rgb(0, 0, 0);"></line><line class="tick" x1="5.826072320977744" y1="-5" x2="5.826072320977744" y2="35" style="stroke: rgb(0, 0, 0);"></line><line class="tick" x1="11.652144641955488" y1="-5" x2="11.652144641955488" y2="35" style="stroke: rgb(0, 0, 0);"></line><line class="tick" x1="17.47821696293323" y1="-5" x2="17.47821696293323" y2="35" style="stroke: rgb(0, 0, 0);"></line><line class="tick" x1="23.304289283910975" y1="-5" x2="23.304289283910975" y2="35" style="stroke: rgb(0, 0, 0);"></line><line class="tick" x1="29.130361604888723" y1="-5" x2="29.130361604888723" y2="35" style="stroke: rgb(0, 0, 0);"></line><line class="tick" x1="34.95643392586646" y1="-5" x2="34.95643392586646" y2="35" style="stroke: rgb(0, 0, 0);"></line><line class="tick" x1="40.782506246844214" y1="-5" x2="40.782506246844214" y2="35" style="stroke: rgb(0, 0, 0);"></line><line class="tick" x1="46.60857856782195" y1="-5" x2="46.60857856782195" y2="35" style="stroke: rgb(0, 0, 0);"></line><line class="tick" x1="52.4346508887997" y1="-5" x2="52.4346508887997" y2="35" style="stroke: rgb(0, 0, 0);"></line><line class="tick" x1="58.260723209777446" y1="-10" x2="58.260723209777446" y2="40" style="stroke: rgb(0, 0, 0);"></line><line class="tick" x1="64.08679553075518" y1="-5" x2="64.08679553075518" y2="35" style="stroke: rgb(0, 0, 0);"></line><line class="tick" x1="69.91286785173293" y1="-5" x2="69.91286785173293" y2="35" style="stroke: rgb(0, 0, 0);"></line><line class="tick" x1="75.73894017271068" y1="-5" x2="75.73894017271068" y2="35" style="stroke: rgb(0, 0, 0);"></line><line class="tick" x1="81.56501249368843" y1="-5" x2="81.56501249368843" y2="35" style="stroke: rgb(0, 0, 0);"></line><line class="tick" x1="87.39108481466616" y1="-5" x2="87.39108481466616" y2="35" style="stroke: rgb(0, 0, 0);"></line><line class="tick" x1="93.2171571356439" y1="-5" x2="93.2171571356439" y2="35" style="stroke: rgb(0, 0, 0);"></line><line class="tick" x1="99.04322945662166" y1="-5" x2="99.04322945662166" y2="35" style="stroke: rgb(0, 0, 0);"></line><line class="tick" x1="104.8693017775994" y1="-5" x2="104.8693017775994" y2="35" style="stroke: rgb(0, 0, 0);"></line><line class="tick" x1="110.69537409857715" y1="-5" x2="110.69537409857715" y2="35" style="stroke: rgb(0, 0, 0);"></line><line class="tick" x1="116.52144641955489" y1="-10" x2="116.52144641955489" y2="40" style="stroke: rgb(0, 0, 0);"></line><line class="tick" x1="122.34751874053264" y1="-5" x2="122.34751874053264" y2="35" style="stroke: rgb(0, 0, 0);"></line><line class="tick" x1="128.17359106151036" y1="-5" x2="128.17359106151036" y2="35" style="stroke: rgb(0, 0, 0);"></line><line class="tick" x1="133.99966338248814" y1="-5" x2="133.99966338248814" y2="35" style="stroke: rgb(0, 0, 0);"></line><line class="tick" x1="139.82573570346585" y1="-5" x2="139.82573570346585" y2="35" style="stroke: rgb(0, 0, 0);"></line><line class="tick" x1="145.6518080244436" y1="-5" x2="145.6518080244436" y2="35" style="stroke: rgb(0, 0, 0);"></line><line class="tick" x1="151.47788034542137" y1="-5" x2="151.47788034542137" y2="35" style="stroke: rgb(0, 0, 0);"></line><line class="tick" x1="157.30395266639908" y1="-5" x2="157.30395266639908" y2="35" style="stroke: rgb(0, 0, 0);"></line><line class="tick" x1="163.13002498737686" y1="-5" x2="163.13002498737686" y2="35" style="stroke: rgb(0, 0, 0);"></line><line class="tick" x1="168.9560973083546" y1="-5" x2="168.9560973083546" y2="35" style="stroke: rgb(0, 0, 0);"></line><line class="tick" x1="174.78216962933232" y1="-10" x2="174.78216962933232" y2="40" style="stroke: rgb(0, 0, 0);"></line><line class="tick" x1="180.6082419503101" y1="-5" x2="180.6082419503101" y2="35" style="stroke: rgb(0, 0, 0);"></line><line class="tick" x1="186.4343142712878" y1="-5" x2="186.4343142712878" y2="35" style="stroke: rgb(0, 0, 0);"></line><line class="tick" x1="192.26038659226558" y1="-5" x2="192.26038659226558" y2="35" style="stroke: rgb(0, 0, 0);"></line><line class="tick" x1="198.08645891324332" y1="-5" x2="198.08645891324332" y2="35" style="stroke: rgb(0, 0, 0);"></line><line class="tick" x1="203.91253123422106" y1="-5" x2="203.91253123422106" y2="35" style="stroke: rgb(0, 0, 0);"></line><line class="tick" x1="209.7386035551988" y1="-5" x2="209.7386035551988" y2="35" style="stroke: rgb(0, 0, 0);"></line><line class="tick" x1="215.56467587617652" y1="-5" x2="215.56467587617652" y2="35" style="stroke: rgb(0, 0, 0);"></line><line class="tick" x1="221.3907481971543" y1="-5" x2="221.3907481971543" y2="35" style="stroke: rgb(0, 0, 0);"></line><line class="tick" x1="227.216820518132" y1="-5" x2="227.216820518132" y2="35" style="stroke: rgb(0, 0, 0);"></line><line class="tick" x1="233.04289283910978" y1="-10" x2="233.04289283910978" y2="40" style="stroke: rgb(0, 0, 0);"></line><line class="tick" x1="238.86896516008753" y1="-5" x2="238.86896516008753" y2="35" style="stroke: rgb(0, 0, 0);"></line><line class="tick" x1="244.69503748106527" y1="-5" x2="244.69503748106527" y2="35" style="stroke: rgb(0, 0, 0);"></line><line class="tick" x1="250.521109802043" y1="-5" x2="250.521109802043" y2="35" style="stroke: rgb(0, 0, 0);"></line><line class="tick" x1="256.34718212302073" y1="-5" x2="256.34718212302073" y2="35" style="stroke: rgb(0, 0, 0);"></line><line class="tick" x1="262.1732544439985" y1="-5" x2="262.1732544439985" y2="35" style="stroke: rgb(0, 0, 0);"></line><line class="tick" x1="267.9993267649763" y1="-5" x2="267.9993267649763" y2="35" style="stroke: rgb(0, 0, 0);"></line><line class="tick" x1="273.825399085954" y1="-5" x2="273.825399085954" y2="35" style="stroke: rgb(0, 0, 0);"></line><line class="tick" x1="279.6514714069317" y1="-5" x2="279.6514714069317" y2="35" style="stroke: rgb(0, 0, 0);"></line><line class="tick" x1="285.47754372790945" y1="-5" x2="285.47754372790945" y2="35" style="stroke: rgb(0, 0, 0);"></line><line class="tick" x1="291.3036160488872" y1="-10" x2="291.3036160488872" y2="40" style="stroke: rgb(0, 0, 0);"></line><line class="tick" x1="297.129688369865" y1="-5" x2="297.129688369865" y2="35" style="stroke: rgb(0, 0, 0);"></line><line class="tick" x1="302.95576069084274" y1="-5" x2="302.95576069084274" y2="35" style="stroke: rgb(0, 0, 0);"></line><line class="tick" x1="308.7818330118205" y1="-5" x2="308.7818330118205" y2="35" style="stroke: rgb(0, 0, 0);"></line><line class="tick" x1="314.60790533279817" y1="-5" x2="314.60790533279817" y2="35" style="stroke: rgb(0, 0, 0);"></line><line class="tick" x1="320.4339776537759" y1="-5" x2="320.4339776537759" y2="35" style="stroke: rgb(0, 0, 0);"></line><line class="tick" x1="326.2600499747537" y1="-5" x2="326.2600499747537" y2="35" style="stroke: rgb(0, 0, 0);"></line><line class="tick" x1="332.08612229573146" y1="-5" x2="332.08612229573146" y2="35" style="stroke: rgb(0, 0, 0);"></line><line class="tick" x1="337.9121946167092" y1="-5" x2="337.9121946167092" y2="35" style="stroke: rgb(0, 0, 0);"></line><line class="tick" x1="343.7382669376869" y1="-5" x2="343.7382669376869" y2="35" style="stroke: rgb(0, 0, 0);"></line><line class="tick" x1="349.56433925866463" y1="-10" x2="349.56433925866463" y2="40" style="stroke: rgb(0, 0, 0);"></line><line class="tick" x1="355.39041157964243" y1="-5" x2="355.39041157964243" y2="35" style="stroke: rgb(0, 0, 0);"></line><line class="tick" x1="361.2164839006202" y1="-5" x2="361.2164839006202" y2="35" style="stroke: rgb(0, 0, 0);"></line><line class="tick" x1="367.0425562215979" y1="-5" x2="367.0425562215979" y2="35" style="stroke: rgb(0, 0, 0);"></line><line class="tick" x1="372.8686285425756" y1="-5" x2="372.8686285425756" y2="35" style="stroke: rgb(0, 0, 0);"></line><line class="tick" x1="378.6947008635534" y1="-5" x2="378.6947008635534" y2="35" style="stroke: rgb(0, 0, 0);"></line><line class="tick" x1="384.52077318453115" y1="-5" x2="384.52077318453115" y2="35" style="stroke: rgb(0, 0, 0);"></line><line class="tick" x1="390.3468455055089" y1="-5" x2="390.3468455055089" y2="35" style="stroke: rgb(0, 0, 0);"></line><line class="tick" x1="396.17291782648664" y1="-5" x2="396.17291782648664" y2="35" style="stroke: rgb(0, 0, 0);"></line><line class="tick" x1="401.9989901474643" y1="-5" x2="401.9989901474643" y2="35" style="stroke: rgb(0, 0, 0);"></line><line class="tick" x1="407.8250624684421" y1="-10" x2="407.8250624684421" y2="40" style="stroke: rgb(0, 0, 0);"></line><line class="tick" x1="413.65113478941987" y1="-5" x2="413.65113478941987" y2="35" style="stroke: rgb(0, 0, 0);"></line><line class="tick" x1="419.4772071103976" y1="-5" x2="419.4772071103976" y2="35" style="stroke: rgb(0, 0, 0);"></line><line class="tick" x1="425.30327943137536" y1="-5" x2="425.30327943137536" y2="35" style="stroke: rgb(0, 0, 0);"></line><line class="tick" x1="431.12935175235305" y1="-5" x2="431.12935175235305" y2="35" style="stroke: rgb(0, 0, 0);"></line><line class="tick" x1="436.95542407333085" y1="-5" x2="436.95542407333085" y2="35" style="stroke: rgb(0, 0, 0);"></line><line class="tick" x1="442.7814963943086" y1="-5" x2="442.7814963943086" y2="35" style="stroke: rgb(0, 0, 0);"></line><line class="tick" x1="448.60756871528633" y1="-5" x2="448.60756871528633" y2="35" style="stroke: rgb(0, 0, 0);"></line><line class="tick" x1="454.433641036264" y1="-5" x2="454.433641036264" y2="35" style="stroke: rgb(0, 0, 0);"></line><line class="tick" x1="460.2597133572418" y1="-5" x2="460.2597133572418" y2="35" style="stroke: rgb(0, 0, 0);"></line><line class="tick" x1="466.08578567821957" y1="-10" x2="466.08578567821957" y2="40" style="stroke: rgb(0, 0, 0);"></line><line class="tick" x1="471.91185799919725" y1="-5" x2="471.91185799919725" y2="35" style="stroke: rgb(0, 0, 0);"></line><line class="tick" x1="477.73793032017505" y1="-5" x2="477.73793032017505" y2="35" style="stroke: rgb(0, 0, 0);"></line><line class="tick" x1="483.56400264115274" y1="-5" x2="483.56400264115274" y2="35" style="stroke: rgb(0, 0, 0);"></line><line class="tick" x1="489.39007496213054" y1="-5" x2="489.39007496213054" y2="35" style="stroke: rgb(0, 0, 0);"></line><line class="tick" x1="495.2161472831083" y1="-5" x2="495.2161472831083" y2="35" style="stroke: rgb(0, 0, 0);"></line><line class="tick" x1="501.042219604086" y1="-5" x2="501.042219604086" y2="35" style="stroke: rgb(0, 0, 0);"></line><line class="tick" x1="506.8682919250638" y1="-5" x2="506.8682919250638" y2="35" style="stroke: rgb(0, 0, 0);"></line><line class="tick" x1="512.6943642460415" y1="-5" x2="512.6943642460415" y2="35" style="stroke: rgb(0, 0, 0);"></line><line class="tick" x1="518.5204365670193" y1="-5" x2="518.5204365670193" y2="35" style="stroke: rgb(0, 0, 0);"></line><line class="tick" x1="524.346508887997" y1="-10" x2="524.346508887997" y2="40" style="stroke: rgb(0, 0, 0);"></line><line class="tick" x1="530.1725812089747" y1="-5" x2="530.1725812089747" y2="35" style="stroke: rgb(0, 0, 0);"></line><line class="tick" x1="535.9986535299525" y1="-5" x2="535.9986535299525" y2="35" style="stroke: rgb(0, 0, 0);"></line><line class="tick" x1="541.8247258509302" y1="-5" x2="541.8247258509302" y2="35" style="stroke: rgb(0, 0, 0);"></line><line class="tick" x1="547.650798171908" y1="-5" x2="547.650798171908" y2="35" style="stroke: rgb(0, 0, 0);"></line><line class="tick" x1="553.4768704928857" y1="-5" x2="553.4768704928857" y2="35" style="stroke: rgb(0, 0, 0);"></line><line class="tick" x1="559.3029428138634" y1="-5" x2="559.3029428138634" y2="35" style="stroke: rgb(0, 0, 0);"></line><line class="tick" x1="565.1290151348412" y1="-5" x2="565.1290151348412" y2="35" style="stroke: rgb(0, 0, 0);"></line><line class="tick" x1="570.9550874558189" y1="-5" x2="570.9550874558189" y2="35" style="stroke: rgb(0, 0, 0);"></line><line class="tick" x1="576.7811597767967" y1="-5" x2="576.7811597767967" y2="35" style="stroke: rgb(0, 0, 0);"></line><line class="tick" x1="582.6072320977744" y1="-10" x2="582.6072320977744" y2="40" style="stroke: rgb(0, 0, 0);"></line><line class="tick" x1="588.4333044187522" y1="-5" x2="588.4333044187522" y2="35" style="stroke: rgb(0, 0, 0);"></line><line class="tick" x1="594.25937673973" y1="-5" x2="594.25937673973" y2="35" style="stroke: rgb(0, 0, 0);"></line><line class="tick" x1="600.0854490607077" y1="-5" x2="600.0854490607077" y2="35" style="stroke: rgb(0, 0, 0);"></line><line class="tick" x1="605.9115213816855" y1="-5" x2="605.9115213816855" y2="35" style="stroke: rgb(0, 0, 0);"></line><line class="tick" x1="611.7375937026632" y1="-5" x2="611.7375937026632" y2="35" style="stroke: rgb(0, 0, 0);"></line><line class="tick" x1="617.563666023641" y1="-5" x2="617.563666023641" y2="35" style="stroke: rgb(0, 0, 0);"></line><line class="tick" x1="623.3897383446186" y1="-5" x2="623.3897383446186" y2="35" style="stroke: rgb(0, 0, 0);"></line><line class="tick" x1="629.2158106655963" y1="-5" x2="629.2158106655963" y2="35" style="stroke: rgb(0, 0, 0);"></line><line class="tick" x1="635.0418829865741" y1="-5" x2="635.0418829865741" y2="35" style="stroke: rgb(0, 0, 0);"></line><line class="tick" x1="640.8679553075518" y1="-10" x2="640.8679553075518" y2="40" style="stroke: rgb(0, 0, 0);"></line><line class="tick" x1="646.6940276285296" y1="-5" x2="646.6940276285296" y2="35" style="stroke: rgb(0, 0, 0);"></line><line class="tick" x1="652.5200999495074" y1="-5" x2="652.5200999495074" y2="35" style="stroke: rgb(0, 0, 0);"></line><line class="tick" x1="658.3461722704851" y1="-5" x2="658.3461722704851" y2="35" style="stroke: rgb(0, 0, 0);"></line><line class="tick" x1="664.1722445914629" y1="-5" x2="664.1722445914629" y2="35" style="stroke: rgb(0, 0, 0);"></line><line class="tick" x1="669.9983169124406" y1="-5" x2="669.9983169124406" y2="35" style="stroke: rgb(0, 0, 0);"></line><line class="tick" x1="675.8243892334184" y1="-5" x2="675.8243892334184" y2="35" style="stroke: rgb(0, 0, 0);"></line><line class="tick" x1="681.6504615543961" y1="-5" x2="681.6504615543961" y2="35" style="stroke: rgb(0, 0, 0);"></line><line class="tick" x1="687.4765338753738" y1="-5" x2="687.4765338753738" y2="35" style="stroke: rgb(0, 0, 0);"></line><line class="tick" x1="693.3026061963516" y1="-5" x2="693.3026061963516" y2="35" style="stroke: rgb(0, 0, 0);"></line><line class="tick" x1="699.1286785173293" y1="-10" x2="699.1286785173293" y2="40" style="stroke: rgb(0, 0, 0);"></line><line class="tick" x1="704.9547508383071" y1="-5" x2="704.9547508383071" y2="35" style="stroke: rgb(0, 0, 0);"></line><line class="tick" x1="710.7808231592849" y1="-5" x2="710.7808231592849" y2="35" style="stroke: rgb(0, 0, 0);"></line><line class="tick" x1="716.6068954802626" y1="-5" x2="716.6068954802626" y2="35" style="stroke: rgb(0, 0, 0);"></line><line class="tick" x1="722.4329678012404" y1="-5" x2="722.4329678012404" y2="35" style="stroke: rgb(0, 0, 0);"></line><line class="tick" x1="728.259040122218" y1="-5" x2="728.259040122218" y2="35" style="stroke: rgb(0, 0, 0);"></line><line class="tick" x1="734.0851124431958" y1="-5" x2="734.0851124431958" y2="35" style="stroke: rgb(0, 0, 0);"></line><line class="tick" x1="739.9111847641735" y1="-5" x2="739.9111847641735" y2="35" style="stroke: rgb(0, 0, 0);"></line><line class="tick" x1="745.7372570851512" y1="-5" x2="745.7372570851512" y2="35" style="stroke: rgb(0, 0, 0);"></line><line class="tick" x1="751.563329406129" y1="-5" x2="751.563329406129" y2="35" style="stroke: rgb(0, 0, 0);"></line><line class="tick" x1="757.3894017271068" y1="-10" x2="757.3894017271068" y2="40" style="stroke: rgb(0, 0, 0);"></line><line class="tick" x1="763.2154740480846" y1="-5" x2="763.2154740480846" y2="35" style="stroke: rgb(0, 0, 0);"></line><line class="tick" x1="769.0415463690623" y1="-5" x2="769.0415463690623" y2="35" style="stroke: rgb(0, 0, 0);"></line><line class="tick" x1="774.86761869004" y1="-5" x2="774.86761869004" y2="35" style="stroke: rgb(0, 0, 0);"></line><line class="tick" x1="780.6936910110178" y1="-5" x2="780.6936910110178" y2="35" style="stroke: rgb(0, 0, 0);"></line><line class="tick" x1="786.5197633319955" y1="-5" x2="786.5197633319955" y2="35" style="stroke: rgb(0, 0, 0);"></line><line class="tick" x1="792.3458356529733" y1="-5" x2="792.3458356529733" y2="35" style="stroke: rgb(0, 0, 0);"></line><line class="tick" x1="798.171907973951" y1="-5" x2="798.171907973951" y2="35" style="stroke: rgb(0, 0, 0);"></line><line class="tick" x1="803.9979802949287" y1="-5" x2="803.9979802949287" y2="35" style="stroke: rgb(0, 0, 0);"></line><line class="tick" x1="809.8240526159065" y1="-5" x2="809.8240526159065" y2="35" style="stroke: rgb(0, 0, 0);"></line><line class="tick" x1="815.6501249368843" y1="-10" x2="815.6501249368843" y2="40" style="stroke: rgb(0, 0, 0);"></line><line class="tick" x1="821.476197257862" y1="-5" x2="821.476197257862" y2="35" style="stroke: rgb(0, 0, 0);"></line><line class="tick" x1="827.3022695788397" y1="-5" x2="827.3022695788397" y2="35" style="stroke: rgb(0, 0, 0);"></line><line class="tick" x1="833.1283418998174" y1="-5" x2="833.1283418998174" y2="35" style="stroke: rgb(0, 0, 0);"></line><line class="tick" x1="838.9544142207952" y1="-5" x2="838.9544142207952" y2="35" style="stroke: rgb(0, 0, 0);"></line><line class="tick" x1="844.7804865417729" y1="-5" x2="844.7804865417729" y2="35" style="stroke: rgb(0, 0, 0);"></line><line class="tick" x1="850.6065588627507" y1="-5" x2="850.6065588627507" y2="35" style="stroke: rgb(0, 0, 0);"></line><line class="tick" x1="856.4326311837284" y1="-5" x2="856.4326311837284" y2="35" style="stroke: rgb(0, 0, 0);"></line><line class="tick" x1="862.2587035047061" y1="-5" x2="862.2587035047061" y2="35" style="stroke: rgb(0, 0, 0);"></line><line class="tick" x1="868.0847758256839" y1="-5" x2="868.0847758256839" y2="35" style="stroke: rgb(0, 0, 0);"></line><line class="tick" x1="873.9108481466617" y1="-10" x2="873.9108481466617" y2="40" style="stroke: rgb(0, 0, 0);"></line><line class="tick" x1="879.7369204676395" y1="-5" x2="879.7369204676395" y2="35" style="stroke: rgb(0, 0, 0);"></line><line class="tick" x1="885.5629927886172" y1="-5" x2="885.5629927886172" y2="35" style="stroke: rgb(0, 0, 0);"></line><line class="tick" x1="891.3890651095949" y1="-5" x2="891.3890651095949" y2="35" style="stroke: rgb(0, 0, 0);"></line><line class="tick" x1="897.2151374305727" y1="-5" x2="897.2151374305727" y2="35" style="stroke: rgb(0, 0, 0);"></line><line class="tick" x1="0" y1="425" x2="0" y2="475" style="stroke: rgb(0, 0, 0);"></line><line class="tick" x1="5.826072320977744" y1="430" x2="5.826072320977744" y2="470" style="stroke: rgb(0, 0, 0);"></line><line class="tick" x1="11.652144641955488" y1="430" x2="11.652144641955488" y2="470" style="stroke: rgb(0, 0, 0);"></line><line class="tick" x1="17.47821696293323" y1="430" x2="17.47821696293323" y2="470" style="stroke: rgb(0, 0, 0);"></line><line class="tick" x1="23.304289283910975" y1="430" x2="23.304289283910975" y2="470" style="stroke: rgb(0, 0, 0);"></line><line class="tick" x1="29.13036160488872" y1="430" x2="29.13036160488872" y2="470" style="stroke: rgb(0, 0, 0);"></line><line class="tick" x1="34.95643392586646" y1="430" x2="34.95643392586646" y2="470" style="stroke: rgb(0, 0, 0);"></line><line class="tick" x1="40.78250624684421" y1="430" x2="40.78250624684421" y2="470" style="stroke: rgb(0, 0, 0);"></line><line class="tick" x1="46.60857856782195" y1="430" x2="46.60857856782195" y2="470" style="stroke: rgb(0, 0, 0);"></line><line class="tick" x1="52.434650888799695" y1="430" x2="52.434650888799695" y2="470" style="stroke: rgb(0, 0, 0);"></line><line class="tick" x1="58.26072320977744" y1="425" x2="58.26072320977744" y2="475" style="stroke: rgb(0, 0, 0);"></line><line class="tick" x1="64.08679553075518" y1="430" x2="64.08679553075518" y2="470" style="stroke: rgb(0, 0, 0);"></line><line class="tick" x1="69.91286785173293" y1="430" x2="69.91286785173293" y2="470" style="stroke: rgb(0, 0, 0);"></line><line class="tick" x1="75.73894017271067" y1="430" x2="75.73894017271067" y2="470" style="stroke: rgb(0, 0, 0);"></line><line class="tick" x1="81.56501249368841" y1="430" x2="81.56501249368841" y2="470" style="stroke: rgb(0, 0, 0);"></line><line class="tick" x1="87.39108481466616" y1="430" x2="87.39108481466616" y2="470" style="stroke: rgb(0, 0, 0);"></line><line class="tick" x1="93.2171571356439" y1="430" x2="93.2171571356439" y2="470" style="stroke: rgb(0, 0, 0);"></line><line class="tick" x1="99.04322945662165" y1="430" x2="99.04322945662165" y2="470" style="stroke: rgb(0, 0, 0);"></line><line class="tick" x1="104.86930177759939" y1="430" x2="104.86930177759939" y2="470" style="stroke: rgb(0, 0, 0);"></line><line class="tick" x1="110.69537409857715" y1="430" x2="110.69537409857715" y2="470" style="stroke: rgb(0, 0, 0);"></line><line class="tick" x1="116.52144641955488" y1="425" x2="116.52144641955488" y2="475" style="stroke: rgb(0, 0, 0);"></line><line class="tick" x1="122.34751874053262" y1="430" x2="122.34751874053262" y2="470" style="stroke: rgb(0, 0, 0);"></line><line class="tick" x1="128.17359106151036" y1="430" x2="128.17359106151036" y2="470" style="stroke: rgb(0, 0, 0);"></line><line class="tick" x1="133.9996633824881" y1="430" x2="133.9996633824881" y2="470" style="stroke: rgb(0, 0, 0);"></line><line class="tick" x1="139.82573570346585" y1="430" x2="139.82573570346585" y2="470" style="stroke: rgb(0, 0, 0);"></line><line class="tick" x1="145.6518080244436" y1="430" x2="145.6518080244436" y2="470" style="stroke: rgb(0, 0, 0);"></line><line class="tick" x1="151.47788034542134" y1="430" x2="151.47788034542134" y2="470" style="stroke: rgb(0, 0, 0);"></line><line class="tick" x1="157.30395266639908" y1="430" x2="157.30395266639908" y2="470" style="stroke: rgb(0, 0, 0);"></line><line class="tick" x1="163.13002498737683" y1="430" x2="163.13002498737683" y2="470" style="stroke: rgb(0, 0, 0);"></line><line class="tick" x1="168.95609730835457" y1="430" x2="168.95609730835457" y2="470" style="stroke: rgb(0, 0, 0);"></line><line class="tick" x1="174.78216962933232" y1="425" x2="174.78216962933232" y2="475" style="stroke: rgb(0, 0, 0);"></line><line class="tick" x1="180.60824195031006" y1="430" x2="180.60824195031006" y2="470" style="stroke: rgb(0, 0, 0);"></line><line class="tick" x1="186.4343142712878" y1="430" x2="186.4343142712878" y2="470" style="stroke: rgb(0, 0, 0);"></line><line class="tick" x1="192.26038659226555" y1="430" x2="192.26038659226555" y2="470" style="stroke: rgb(0, 0, 0);"></line><line class="tick" x1="198.0864589132433" y1="430" x2="198.0864589132433" y2="470" style="stroke: rgb(0, 0, 0);"></line><line class="tick" x1="203.91253123422103" y1="430" x2="203.91253123422103" y2="470" style="stroke: rgb(0, 0, 0);"></line><line class="tick" x1="209.73860355519878" y1="430" x2="209.73860355519878" y2="470" style="stroke: rgb(0, 0, 0);"></line><line class="tick" x1="215.56467587617652" y1="430" x2="215.56467587617652" y2="470" style="stroke: rgb(0, 0, 0);"></line><line class="tick" x1="221.3907481971543" y1="430" x2="221.3907481971543" y2="470" style="stroke: rgb(0, 0, 0);"></line><line class="tick" x1="227.216820518132" y1="430" x2="227.216820518132" y2="470" style="stroke: rgb(0, 0, 0);"></line><line class="tick" x1="233.04289283910975" y1="425" x2="233.04289283910975" y2="475" style="stroke: rgb(0, 0, 0);"></line><line class="tick" x1="238.8689651600875" y1="430" x2="238.8689651600875" y2="470" style="stroke: rgb(0, 0, 0);"></line><line class="tick" x1="244.69503748106524" y1="430" x2="244.69503748106524" y2="470" style="stroke: rgb(0, 0, 0);"></line><line class="tick" x1="250.521109802043" y1="430" x2="250.521109802043" y2="470" style="stroke: rgb(0, 0, 0);"></line><line class="tick" x1="256.34718212302073" y1="430" x2="256.34718212302073" y2="470" style="stroke: rgb(0, 0, 0);"></line><line class="tick" x1="262.1732544439985" y1="430" x2="262.1732544439985" y2="470" style="stroke: rgb(0, 0, 0);"></line><line class="tick" x1="267.9993267649762" y1="430" x2="267.9993267649762" y2="470" style="stroke: rgb(0, 0, 0);"></line><line class="tick" x1="273.82539908595396" y1="430" x2="273.82539908595396" y2="470" style="stroke: rgb(0, 0, 0);"></line><line class="tick" x1="279.6514714069317" y1="430" x2="279.6514714069317" y2="470" style="stroke: rgb(0, 0, 0);"></line><line class="tick" x1="285.47754372790945" y1="430" x2="285.47754372790945" y2="470" style="stroke: rgb(0, 0, 0);"></line><line class="tick" x1="291.3036160488872" y1="425" x2="291.3036160488872" y2="475" style="stroke: rgb(0, 0, 0);"></line><line class="tick" x1="297.12968836986494" y1="430" x2="297.12968836986494" y2="470" style="stroke: rgb(0, 0, 0);"></line><line class="tick" x1="302.9557606908427" y1="430" x2="302.9557606908427" y2="470" style="stroke: rgb(0, 0, 0);"></line><line class="tick" x1="308.7818330118204" y1="430" x2="308.7818330118204" y2="470" style="stroke: rgb(0, 0, 0);"></line><line class="tick" x1="314.60790533279817" y1="430" x2="314.60790533279817" y2="470" style="stroke: rgb(0, 0, 0);"></line><line class="tick" x1="320.4339776537759" y1="430" x2="320.4339776537759" y2="470" style="stroke: rgb(0, 0, 0);"></line><line class="tick" x1="326.26004997475366" y1="430" x2="326.26004997475366" y2="470" style="stroke: rgb(0, 0, 0);"></line><line class="tick" x1="332.0861222957314" y1="430" x2="332.0861222957314" y2="470" style="stroke: rgb(0, 0, 0);"></line><line class="tick" x1="337.91219461670914" y1="430" x2="337.91219461670914" y2="470" style="stroke: rgb(0, 0, 0);"></line><line class="tick" x1="343.7382669376869" y1="430" x2="343.7382669376869" y2="470" style="stroke: rgb(0, 0, 0);"></line><line class="tick" x1="349.56433925866463" y1="425" x2="349.56433925866463" y2="475" style="stroke: rgb(0, 0, 0);"></line><line class="tick" x1="355.3904115796424" y1="430" x2="355.3904115796424" y2="470" style="stroke: rgb(0, 0, 0);"></line><line class="tick" x1="361.2164839006201" y1="430" x2="361.2164839006201" y2="470" style="stroke: rgb(0, 0, 0);"></line><line class="tick" x1="367.04255622159786" y1="430" x2="367.04255622159786" y2="470" style="stroke: rgb(0, 0, 0);"></line><line class="tick" x1="372.8686285425756" y1="430" x2="372.8686285425756" y2="470" style="stroke: rgb(0, 0, 0);"></line><line class="tick" x1="378.69470086355335" y1="430" x2="378.69470086355335" y2="470" style="stroke: rgb(0, 0, 0);"></line><line class="tick" x1="384.5207731845311" y1="430" x2="384.5207731845311" y2="470" style="stroke: rgb(0, 0, 0);"></line><line class="tick" x1="390.34684550550884" y1="430" x2="390.34684550550884" y2="470" style="stroke: rgb(0, 0, 0);"></line><line class="tick" x1="396.1729178264866" y1="430" x2="396.1729178264866" y2="470" style="stroke: rgb(0, 0, 0);"></line><line class="tick" x1="401.9989901474643" y1="430" x2="401.9989901474643" y2="470" style="stroke: rgb(0, 0, 0);"></line><line class="tick" x1="407.82506246844207" y1="425" x2="407.82506246844207" y2="475" style="stroke: rgb(0, 0, 0);"></line><line class="tick" x1="413.6511347894198" y1="430" x2="413.6511347894198" y2="470" style="stroke: rgb(0, 0, 0);"></line><line class="tick" x1="419.47720711039756" y1="430" x2="419.47720711039756" y2="470" style="stroke: rgb(0, 0, 0);"></line><line class="tick" x1="425.3032794313753" y1="430" x2="425.3032794313753" y2="470" style="stroke: rgb(0, 0, 0);"></line><line class="tick" x1="431.12935175235305" y1="430" x2="431.12935175235305" y2="470" style="stroke: rgb(0, 0, 0);"></line><line class="tick" x1="436.9554240733308" y1="430" x2="436.9554240733308" y2="470" style="stroke: rgb(0, 0, 0);"></line><line class="tick" x1="442.7814963943086" y1="430" x2="442.7814963943086" y2="470" style="stroke: rgb(0, 0, 0);"></line><line class="tick" x1="448.60756871528633" y1="430" x2="448.60756871528633" y2="470" style="stroke: rgb(0, 0, 0);"></line><line class="tick" x1="454.433641036264" y1="430" x2="454.433641036264" y2="470" style="stroke: rgb(0, 0, 0);"></line><line class="tick" x1="460.25971335724176" y1="430" x2="460.25971335724176" y2="470" style="stroke: rgb(0, 0, 0);"></line><line class="tick" x1="466.0857856782195" y1="425" x2="466.0857856782195" y2="475" style="stroke: rgb(0, 0, 0);"></line><line class="tick" x1="471.91185799919725" y1="430" x2="471.91185799919725" y2="470" style="stroke: rgb(0, 0, 0);"></line><line class="tick" x1="477.737930320175" y1="430" x2="477.737930320175" y2="470" style="stroke: rgb(0, 0, 0);"></line><line class="tick" x1="483.56400264115274" y1="430" x2="483.56400264115274" y2="470" style="stroke: rgb(0, 0, 0);"></line><line class="tick" x1="489.3900749621305" y1="430" x2="489.3900749621305" y2="470" style="stroke: rgb(0, 0, 0);"></line><line class="tick" x1="495.2161472831082" y1="430" x2="495.2161472831082" y2="470" style="stroke: rgb(0, 0, 0);"></line><line class="tick" x1="501.042219604086" y1="430" x2="501.042219604086" y2="470" style="stroke: rgb(0, 0, 0);"></line><line class="tick" x1="506.86829192506366" y1="430" x2="506.86829192506366" y2="470" style="stroke: rgb(0, 0, 0);"></line><line class="tick" x1="512.6943642460415" y1="430" x2="512.6943642460415" y2="470" style="stroke: rgb(0, 0, 0);"></line><line class="tick" x1="518.5204365670193" y1="430" x2="518.5204365670193" y2="470" style="stroke: rgb(0, 0, 0);"></line><line class="tick" x1="524.346508887997" y1="425" x2="524.346508887997" y2="475" style="stroke: rgb(0, 0, 0);"></line><line class="tick" x1="530.1725812089747" y1="430" x2="530.1725812089747" y2="470" style="stroke: rgb(0, 0, 0);"></line><line class="tick" x1="535.9986535299524" y1="430" x2="535.9986535299524" y2="470" style="stroke: rgb(0, 0, 0);"></line><line class="tick" x1="541.8247258509302" y1="430" x2="541.8247258509302" y2="470" style="stroke: rgb(0, 0, 0);"></line><line class="tick" x1="547.6507981719079" y1="430" x2="547.6507981719079" y2="470" style="stroke: rgb(0, 0, 0);"></line><line class="tick" x1="553.4768704928857" y1="430" x2="553.4768704928857" y2="470" style="stroke: rgb(0, 0, 0);"></line><line class="tick" x1="559.3029428138634" y1="430" x2="559.3029428138634" y2="470" style="stroke: rgb(0, 0, 0);"></line><line class="tick" x1="565.1290151348412" y1="430" x2="565.1290151348412" y2="470" style="stroke: rgb(0, 0, 0);"></line><line class="tick" x1="570.9550874558189" y1="430" x2="570.9550874558189" y2="470" style="stroke: rgb(0, 0, 0);"></line><line class="tick" x1="576.7811597767966" y1="430" x2="576.7811597767966" y2="470" style="stroke: rgb(0, 0, 0);"></line><line class="tick" x1="582.6072320977744" y1="425" x2="582.6072320977744" y2="475" style="stroke: rgb(0, 0, 0);"></line><line class="tick" x1="588.4333044187521" y1="430" x2="588.4333044187521" y2="470" style="stroke: rgb(0, 0, 0);"></line><line class="tick" x1="594.2593767397299" y1="430" x2="594.2593767397299" y2="470" style="stroke: rgb(0, 0, 0);"></line><line class="tick" x1="600.0854490607076" y1="430" x2="600.0854490607076" y2="470" style="stroke: rgb(0, 0, 0);"></line><line class="tick" x1="605.9115213816854" y1="430" x2="605.9115213816854" y2="470" style="stroke: rgb(0, 0, 0);"></line><line class="tick" x1="611.7375937026632" y1="430" x2="611.7375937026632" y2="470" style="stroke: rgb(0, 0, 0);"></line><line class="tick" x1="617.5636660236408" y1="430" x2="617.5636660236408" y2="470" style="stroke: rgb(0, 0, 0);"></line><line class="tick" x1="623.3897383446186" y1="430" x2="623.3897383446186" y2="470" style="stroke: rgb(0, 0, 0);"></line><line class="tick" x1="629.2158106655963" y1="430" x2="629.2158106655963" y2="470" style="stroke: rgb(0, 0, 0);"></line><line class="tick" x1="635.0418829865741" y1="430" x2="635.0418829865741" y2="470" style="stroke: rgb(0, 0, 0);"></line><line class="tick" x1="640.8679553075518" y1="425" x2="640.8679553075518" y2="475" style="stroke: rgb(0, 0, 0);"></line><line class="tick" x1="646.6940276285296" y1="430" x2="646.6940276285296" y2="470" style="stroke: rgb(0, 0, 0);"></line><line class="tick" x1="652.5200999495073" y1="430" x2="652.5200999495073" y2="470" style="stroke: rgb(0, 0, 0);"></line><line class="tick" x1="658.3461722704851" y1="430" x2="658.3461722704851" y2="470" style="stroke: rgb(0, 0, 0);"></line><line class="tick" x1="664.1722445914628" y1="430" x2="664.1722445914628" y2="470" style="stroke: rgb(0, 0, 0);"></line><line class="tick" x1="669.9983169124405" y1="430" x2="669.9983169124405" y2="470" style="stroke: rgb(0, 0, 0);"></line><line class="tick" x1="675.8243892334183" y1="430" x2="675.8243892334183" y2="470" style="stroke: rgb(0, 0, 0);"></line><line class="tick" x1="681.650461554396" y1="430" x2="681.650461554396" y2="470" style="stroke: rgb(0, 0, 0);"></line><line class="tick" x1="687.4765338753738" y1="430" x2="687.4765338753738" y2="470" style="stroke: rgb(0, 0, 0);"></line><line class="tick" x1="693.3026061963515" y1="430" x2="693.3026061963515" y2="470" style="stroke: rgb(0, 0, 0);"></line><line class="tick" x1="699.1286785173293" y1="425" x2="699.1286785173293" y2="475" style="stroke: rgb(0, 0, 0);"></line><line class="tick" x1="704.9547508383071" y1="430" x2="704.9547508383071" y2="470" style="stroke: rgb(0, 0, 0);"></line><line class="tick" x1="710.7808231592848" y1="430" x2="710.7808231592848" y2="470" style="stroke: rgb(0, 0, 0);"></line><line class="tick" x1="716.6068954802626" y1="430" x2="716.6068954802626" y2="470" style="stroke: rgb(0, 0, 0);"></line><line class="tick" x1="722.4329678012402" y1="430" x2="722.4329678012402" y2="470" style="stroke: rgb(0, 0, 0);"></line><line class="tick" x1="728.259040122218" y1="430" x2="728.259040122218" y2="470" style="stroke: rgb(0, 0, 0);"></line><line class="tick" x1="734.0851124431957" y1="430" x2="734.0851124431957" y2="470" style="stroke: rgb(0, 0, 0);"></line><line class="tick" x1="739.9111847641735" y1="430" x2="739.9111847641735" y2="470" style="stroke: rgb(0, 0, 0);"></line><line class="tick" x1="745.7372570851512" y1="430" x2="745.7372570851512" y2="470" style="stroke: rgb(0, 0, 0);"></line><line class="tick" x1="751.563329406129" y1="430" x2="751.563329406129" y2="470" style="stroke: rgb(0, 0, 0);"></line><line class="tick" x1="757.3894017271067" y1="425" x2="757.3894017271067" y2="475" style="stroke: rgb(0, 0, 0);"></line><line class="tick" x1="763.2154740480844" y1="430" x2="763.2154740480844" y2="470" style="stroke: rgb(0, 0, 0);"></line><line class="tick" x1="769.0415463690622" y1="430" x2="769.0415463690622" y2="470" style="stroke: rgb(0, 0, 0);"></line><line class="tick" x1="774.8676186900399" y1="430" x2="774.8676186900399" y2="470" style="stroke: rgb(0, 0, 0);"></line><line class="tick" x1="780.6936910110177" y1="430" x2="780.6936910110177" y2="470" style="stroke: rgb(0, 0, 0);"></line><line class="tick" x1="786.5197633319954" y1="430" x2="786.5197633319954" y2="470" style="stroke: rgb(0, 0, 0);"></line><line class="tick" x1="792.3458356529732" y1="430" x2="792.3458356529732" y2="470" style="stroke: rgb(0, 0, 0);"></line><line class="tick" x1="798.171907973951" y1="430" x2="798.171907973951" y2="470" style="stroke: rgb(0, 0, 0);"></line><line class="tick" x1="803.9979802949287" y1="430" x2="803.9979802949287" y2="470" style="stroke: rgb(0, 0, 0);"></line><line class="tick" x1="809.8240526159065" y1="430" x2="809.8240526159065" y2="470" style="stroke: rgb(0, 0, 0);"></line><line class="tick" x1="815.6501249368841" y1="425" x2="815.6501249368841" y2="475" style="stroke: rgb(0, 0, 0);"></line><line class="tick" x1="821.4761972578619" y1="430" x2="821.4761972578619" y2="470" style="stroke: rgb(0, 0, 0);"></line><line class="tick" x1="827.3022695788396" y1="430" x2="827.3022695788396" y2="470" style="stroke: rgb(0, 0, 0);"></line><line class="tick" x1="833.1283418998174" y1="430" x2="833.1283418998174" y2="470" style="stroke: rgb(0, 0, 0);"></line><line class="tick" x1="838.9544142207951" y1="430" x2="838.9544142207951" y2="470" style="stroke: rgb(0, 0, 0);"></line><line class="tick" x1="844.7804865417729" y1="430" x2="844.7804865417729" y2="470" style="stroke: rgb(0, 0, 0);"></line><line class="tick" x1="850.6065588627506" y1="430" x2="850.6065588627506" y2="470" style="stroke: rgb(0, 0, 0);"></line><line class="tick" x1="856.4326311837284" y1="430" x2="856.4326311837284" y2="470" style="stroke: rgb(0, 0, 0);"></line><line class="tick" x1="862.2587035047061" y1="430" x2="862.2587035047061" y2="470" style="stroke: rgb(0, 0, 0);"></line><line class="tick" x1="868.0847758256838" y1="430" x2="868.0847758256838" y2="470" style="stroke: rgb(0, 0, 0);"></line><line class="tick" x1="873.9108481466616" y1="425" x2="873.9108481466616" y2="475" style="stroke: rgb(0, 0, 0);"></line><line class="tick" x1="483.5640026411527" y1="860" x2="483.5640026411527" y2="910" style="stroke: rgb(0, 0, 0);"></line><line class="tick" x1="477.737930320175" y1="865" x2="477.737930320175" y2="905" style="stroke: rgb(0, 0, 0);"></line><line class="tick" x1="471.91185799919725" y1="865" x2="471.91185799919725" y2="905" style="stroke: rgb(0, 0, 0);"></line><line class="tick" x1="466.08578567821957" y1="865" x2="466.08578567821957" y2="905" style="stroke: rgb(0, 0, 0);"></line><line class="tick" x1="460.2597133572418" y1="865" x2="460.2597133572418" y2="905" style="stroke: rgb(0, 0, 0);"></line><line class="tick" x1="454.433641036264" y1="865" x2="454.433641036264" y2="905" style="stroke: rgb(0, 0, 0);"></line><line class="tick" x1="448.6075687152863" y1="865" x2="448.6075687152863" y2="905" style="stroke: rgb(0, 0, 0);"></line><line class="tick" x1="442.78149639430853" y1="865" x2="442.78149639430853" y2="905" style="stroke: rgb(0, 0, 0);"></line><line class="tick" x1="436.95542407333073" y1="865" x2="436.95542407333073" y2="905" style="stroke: rgb(0, 0, 0);"></line><line class="tick" x1="431.1293517523531" y1="865" x2="431.1293517523531" y2="905" style="stroke: rgb(0, 0, 0);"></line><line class="tick" x1="425.3032794313753" y1="860" x2="425.3032794313753" y2="910" style="stroke: rgb(0, 0, 0);"></line><line class="tick" x1="419.47720711039756" y1="865" x2="419.47720711039756" y2="905" style="stroke: rgb(0, 0, 0);"></line><line class="tick" x1="413.6511347894198" y1="865" x2="413.6511347894198" y2="905" style="stroke: rgb(0, 0, 0);"></line><line class="tick" x1="407.825062468442" y1="865" x2="407.825062468442" y2="905" style="stroke: rgb(0, 0, 0);"></line><line class="tick" x1="401.9989901474644" y1="865" x2="401.9989901474644" y2="905" style="stroke: rgb(0, 0, 0);"></line><line class="tick" x1="396.1729178264866" y1="865" x2="396.1729178264866" y2="905" style="stroke: rgb(0, 0, 0);"></line><line class="tick" x1="390.34684550550884" y1="865" x2="390.34684550550884" y2="905" style="stroke: rgb(0, 0, 0);"></line><line class="tick" x1="384.5207731845311" y1="865" x2="384.5207731845311" y2="905" style="stroke: rgb(0, 0, 0);"></line><line class="tick" x1="378.6947008635533" y1="865" x2="378.6947008635533" y2="905" style="stroke: rgb(0, 0, 0);"></line><line class="tick" x1="372.86862854257566" y1="865" x2="372.86862854257566" y2="905" style="stroke: rgb(0, 0, 0);"></line><line class="tick" x1="367.04255622159786" y1="860" x2="367.04255622159786" y2="910" style="stroke: rgb(0, 0, 0);"></line><line class="tick" x1="361.2164839006201" y1="865" x2="361.2164839006201" y2="905" style="stroke: rgb(0, 0, 0);"></line><line class="tick" x1="355.3904115796423" y1="865" x2="355.3904115796423" y2="905" style="stroke: rgb(0, 0, 0);"></line><line class="tick" x1="349.5643392586646" y1="865" x2="349.5643392586646" y2="905" style="stroke: rgb(0, 0, 0);"></line><line class="tick" x1="343.7382669376869" y1="865" x2="343.7382669376869" y2="905" style="stroke: rgb(0, 0, 0);"></line><line class="tick" x1="337.91219461670914" y1="865" x2="337.91219461670914" y2="905" style="stroke: rgb(0, 0, 0);"></line><line class="tick" x1="332.0861222957314" y1="865" x2="332.0861222957314" y2="905" style="stroke: rgb(0, 0, 0);"></line><line class="tick" x1="326.2600499747536" y1="865" x2="326.2600499747536" y2="905" style="stroke: rgb(0, 0, 0);"></line><line class="tick" x1="320.43397765377597" y1="865" x2="320.43397765377597" y2="905" style="stroke: rgb(0, 0, 0);"></line><line class="tick" x1="314.60790533279817" y1="865" x2="314.60790533279817" y2="905" style="stroke: rgb(0, 0, 0);"></line><line class="tick" x1="308.7818330118204" y1="860" x2="308.7818330118204" y2="910" style="stroke: rgb(0, 0, 0);"></line><line class="tick" x1="302.9557606908427" y1="865" x2="302.9557606908427" y2="905" style="stroke: rgb(0, 0, 0);"></line><line class="tick" x1="297.1296883698649" y1="865" x2="297.1296883698649" y2="905" style="stroke: rgb(0, 0, 0);"></line><line class="tick" x1="291.30361604888725" y1="865" x2="291.30361604888725" y2="905" style="stroke: rgb(0, 0, 0);"></line><line class="tick" x1="285.47754372790945" y1="865" x2="285.47754372790945" y2="905" style="stroke: rgb(0, 0, 0);"></line><line class="tick" x1="279.6514714069317" y1="865" x2="279.6514714069317" y2="905" style="stroke: rgb(0, 0, 0);"></line><line class="tick" x1="273.82539908595396" y1="865" x2="273.82539908595396" y2="905" style="stroke: rgb(0, 0, 0);"></line><line class="tick" x1="267.99932676497616" y1="865" x2="267.99932676497616" y2="905" style="stroke: rgb(0, 0, 0);"></line><line class="tick" x1="262.17325444399853" y1="865" x2="262.17325444399853" y2="905" style="stroke: rgb(0, 0, 0);"></line><line class="tick" x1="256.34718212302073" y1="865" x2="256.34718212302073" y2="905" style="stroke: rgb(0, 0, 0);"></line><line class="tick" x1="250.521109802043" y1="860" x2="250.521109802043" y2="910" style="stroke: rgb(0, 0, 0);"></line><line class="tick" x1="244.6950374810652" y1="865" x2="244.6950374810652" y2="905" style="stroke: rgb(0, 0, 0);"></line><line class="tick" x1="238.86896516008744" y1="865" x2="238.86896516008744" y2="905" style="stroke: rgb(0, 0, 0);"></line><line class="tick" x1="233.04289283910978" y1="865" x2="233.04289283910978" y2="905" style="stroke: rgb(0, 0, 0);"></line><line class="tick" x1="227.216820518132" y1="865" x2="227.216820518132" y2="905" style="stroke: rgb(0, 0, 0);"></line><line class="tick" x1="221.39074819715427" y1="865" x2="221.39074819715427" y2="905" style="stroke: rgb(0, 0, 0);"></line><line class="tick" x1="215.5646758761765" y1="865" x2="215.5646758761765" y2="905" style="stroke: rgb(0, 0, 0);"></line><line class="tick" x1="209.73860355519872" y1="865" x2="209.73860355519872" y2="905" style="stroke: rgb(0, 0, 0);"></line><line class="tick" x1="203.91253123422106" y1="865" x2="203.91253123422106" y2="905" style="stroke: rgb(0, 0, 0);"></line><line class="tick" x1="198.0864589132433" y1="865" x2="198.0864589132433" y2="905" style="stroke: rgb(0, 0, 0);"></line><line class="tick" x1="192.26038659226555" y1="860" x2="192.26038659226555" y2="910" style="stroke: rgb(0, 0, 0);"></line><line class="tick" x1="186.43431427128778" y1="865" x2="186.43431427128778" y2="905" style="stroke: rgb(0, 0, 0);"></line><line class="tick" x1="180.60824195031012" y1="865" x2="180.60824195031012" y2="905" style="stroke: rgb(0, 0, 0);"></line><line class="tick" x1="174.78216962933234" y1="865" x2="174.78216962933234" y2="905" style="stroke: rgb(0, 0, 0);"></line><line class="tick" x1="168.95609730835457" y1="865" x2="168.95609730835457" y2="905" style="stroke: rgb(0, 0, 0);"></line><line class="tick" x1="163.1300249873768" y1="865" x2="163.1300249873768" y2="905" style="stroke: rgb(0, 0, 0);"></line><line class="tick" x1="157.30395266639906" y1="865" x2="157.30395266639906" y2="905" style="stroke: rgb(0, 0, 0);"></line><line class="tick" x1="151.47788034542137" y1="865" x2="151.47788034542137" y2="905" style="stroke: rgb(0, 0, 0);"></line><line class="tick" x1="145.65180802444362" y1="865" x2="145.65180802444362" y2="905" style="stroke: rgb(0, 0, 0);"></line><line class="tick" x1="139.82573570346585" y1="865" x2="139.82573570346585" y2="905" style="stroke: rgb(0, 0, 0);"></line><line class="tick" x1="133.99966338248808" y1="860" x2="133.99966338248808" y2="910" style="stroke: rgb(0, 0, 0);"></line><line class="tick" x1="128.17359106151034" y1="865" x2="128.17359106151034" y2="905" style="stroke: rgb(0, 0, 0);"></line><line class="tick" x1="122.34751874053266" y1="865" x2="122.34751874053266" y2="905" style="stroke: rgb(0, 0, 0);"></line><line class="tick" x1="116.52144641955489" y1="865" x2="116.52144641955489" y2="905" style="stroke: rgb(0, 0, 0);"></line><line class="tick" x1="110.69537409857713" y1="865" x2="110.69537409857713" y2="905" style="stroke: rgb(0, 0, 0);"></line><line class="tick" x1="104.86930177759936" y1="865" x2="104.86930177759936" y2="905" style="stroke: rgb(0, 0, 0);"></line><line class="tick" x1="99.0432294566216" y1="865" x2="99.0432294566216" y2="905" style="stroke: rgb(0, 0, 0);"></line><line class="tick" x1="93.21715713564393" y1="865" x2="93.21715713564393" y2="905" style="stroke: rgb(0, 0, 0);"></line><line class="tick" x1="87.39108481466617" y1="865" x2="87.39108481466617" y2="905" style="stroke: rgb(0, 0, 0);"></line><line class="tick" x1="81.5650124936884" y1="865" x2="81.5650124936884" y2="905" style="stroke: rgb(0, 0, 0);"></line><line class="tick" x1="75.73894017271064" y1="860" x2="75.73894017271064" y2="910" style="stroke: rgb(0, 0, 0);"></line><line class="tick" x1="69.91286785173288" y1="865" x2="69.91286785173288" y2="905" style="stroke: rgb(0, 0, 0);"></line><line class="tick" x1="64.08679553075521" y1="865" x2="64.08679553075521" y2="905" style="stroke: rgb(0, 0, 0);"></line><line class="tick" x1="58.260723209777446" y1="865" x2="58.260723209777446" y2="905" style="stroke: rgb(0, 0, 0);"></line><line class="tick" x1="52.43465088879968" y1="865" x2="52.43465088879968" y2="905" style="stroke: rgb(0, 0, 0);"></line><line class="tick" x1="46.608578567821915" y1="865" x2="46.608578567821915" y2="905" style="stroke: rgb(0, 0, 0);"></line><line class="tick" x1="40.78250624684425" y1="865" x2="40.78250624684425" y2="905" style="stroke: rgb(0, 0, 0);"></line><line class="tick" x1="34.956433925866484" y1="865" x2="34.956433925866484" y2="905" style="stroke: rgb(0, 0, 0);"></line><line class="tick" x1="29.130361604888723" y1="865" x2="29.130361604888723" y2="905" style="stroke: rgb(0, 0, 0);"></line><line class="tick" x1="23.304289283910958" y1="865" x2="23.304289283910958" y2="905" style="stroke: rgb(0, 0, 0);"></line><line class="tick" x1="17.478216962933196" y1="860" x2="17.478216962933196" y2="910" style="stroke: rgb(0, 0, 0);"></line><line class="tick" x1="11.652144641955529" y1="865" x2="11.652144641955529" y2="905" style="stroke: rgb(0, 0, 0);"></line><line class="tick" x1="5.826072320977764" y1="865" x2="5.826072320977764" y2="905" style="stroke: rgb(0, 0, 0);"></line><line class="tick" x1="881.1759603309208" y1="865" x2="881.1759603309208" y2="905" style="stroke: rgb(0, 0, 0);"></line><line class="tick" x1="875.349888009943" y1="865" x2="875.349888009943" y2="905" style="stroke: rgb(0, 0, 0);"></line><line class="tick" x1="869.5238156889653" y1="865" x2="869.5238156889653" y2="905" style="stroke: rgb(0, 0, 0);"></line><line class="tick" x1="863.6977433679876" y1="865" x2="863.6977433679876" y2="905" style="stroke: rgb(0, 0, 0);"></line><line class="tick" x1="857.8716710470098" y1="865" x2="857.8716710470098" y2="905" style="stroke: rgb(0, 0, 0);"></line><line class="tick" x1="852.045598726032" y1="865" x2="852.045598726032" y2="905" style="stroke: rgb(0, 0, 0);"></line><line class="tick" x1="846.2195264050544" y1="865" x2="846.2195264050544" y2="905" style="stroke: rgb(0, 0, 0);"></line><line class="tick" x1="840.3934540840766" y1="860" x2="840.3934540840766" y2="910" style="stroke: rgb(0, 0, 0);"></line><line class="tick" x1="834.5673817630989" y1="865" x2="834.5673817630989" y2="905" style="stroke: rgb(0, 0, 0);"></line><line class="tick" x1="828.7413094421212" y1="865" x2="828.7413094421212" y2="905" style="stroke: rgb(0, 0, 0);"></line><line class="tick" x1="822.9152371211434" y1="865" x2="822.9152371211434" y2="905" style="stroke: rgb(0, 0, 0);"></line><line class="tick" x1="817.0891648001656" y1="865" x2="817.0891648001656" y2="905" style="stroke: rgb(0, 0, 0);"></line><line class="tick" x1="811.2630924791879" y1="865" x2="811.2630924791879" y2="905" style="stroke: rgb(0, 0, 0);"></line><line class="tick" x1="805.4370201582102" y1="865" x2="805.4370201582102" y2="905" style="stroke: rgb(0, 0, 0);"></line><line class="tick" x1="799.6109478372324" y1="865" x2="799.6109478372324" y2="905" style="stroke: rgb(0, 0, 0);"></line><line class="tick" x1="793.7848755162546" y1="865" x2="793.7848755162546" y2="905" style="stroke: rgb(0, 0, 0);"></line><line class="tick" x1="787.9588031952769" y1="865" x2="787.9588031952769" y2="905" style="stroke: rgb(0, 0, 0);"></line><line class="tick" x1="782.1327308742992" y1="860" x2="782.1327308742992" y2="910" style="stroke: rgb(0, 0, 0);"></line><line class="tick" x1="776.3066585533214" y1="865" x2="776.3066585533214" y2="905" style="stroke: rgb(0, 0, 0);"></line><line class="tick" x1="770.4805862323437" y1="865" x2="770.4805862323437" y2="905" style="stroke: rgb(0, 0, 0);"></line><line class="tick" x1="764.6545139113659" y1="865" x2="764.6545139113659" y2="905" style="stroke: rgb(0, 0, 0);"></line><line class="tick" x1="758.8284415903881" y1="865" x2="758.8284415903881" y2="905" style="stroke: rgb(0, 0, 0);"></line><line class="tick" x1="753.0023692694105" y1="865" x2="753.0023692694105" y2="905" style="stroke: rgb(0, 0, 0);"></line><line class="tick" x1="747.1762969484328" y1="865" x2="747.1762969484328" y2="905" style="stroke: rgb(0, 0, 0);"></line><line class="tick" x1="741.350224627455" y1="865" x2="741.350224627455" y2="905" style="stroke: rgb(0, 0, 0);"></line><line class="tick" x1="735.5241523064772" y1="865" x2="735.5241523064772" y2="905" style="stroke: rgb(0, 0, 0);"></line><line class="tick" x1="729.6980799854996" y1="865" x2="729.6980799854996" y2="905" style="stroke: rgb(0, 0, 0);"></line><line class="tick" x1="723.8720076645218" y1="860" x2="723.8720076645218" y2="910" style="stroke: rgb(0, 0, 0);"></line><line class="tick" x1="718.045935343544" y1="865" x2="718.045935343544" y2="905" style="stroke: rgb(0, 0, 0);"></line><line class="tick" x1="712.2198630225662" y1="865" x2="712.2198630225662" y2="905" style="stroke: rgb(0, 0, 0);"></line><line class="tick" x1="706.3937907015885" y1="865" x2="706.3937907015885" y2="905" style="stroke: rgb(0, 0, 0);"></line><line class="tick" x1="700.5677183806107" y1="865" x2="700.5677183806107" y2="905" style="stroke: rgb(0, 0, 0);"></line><line class="tick" x1="694.741646059633" y1="865" x2="694.741646059633" y2="905" style="stroke: rgb(0, 0, 0);"></line><line class="tick" x1="688.9155737386553" y1="865" x2="688.9155737386553" y2="905" style="stroke: rgb(0, 0, 0);"></line><line class="tick" x1="683.0895014176775" y1="865" x2="683.0895014176775" y2="905" style="stroke: rgb(0, 0, 0);"></line><line class="tick" x1="677.2634290966997" y1="865" x2="677.2634290966997" y2="905" style="stroke: rgb(0, 0, 0);"></line><line class="tick" x1="671.437356775722" y1="865" x2="671.437356775722" y2="905" style="stroke: rgb(0, 0, 0);"></line><line class="tick" x1="665.6112844547444" y1="860" x2="665.6112844547444" y2="910" style="stroke: rgb(0, 0, 0);"></line><line class="tick" x1="659.7852121337665" y1="865" x2="659.7852121337665" y2="905" style="stroke: rgb(0, 0, 0);"></line><line class="tick" x1="653.9591398127887" y1="865" x2="653.9591398127887" y2="905" style="stroke: rgb(0, 0, 0);"></line><line class="tick" x1="648.1330674918111" y1="865" x2="648.1330674918111" y2="905" style="stroke: rgb(0, 0, 0);"></line><line class="tick" x1="642.3069951708333" y1="865" x2="642.3069951708333" y2="905" style="stroke: rgb(0, 0, 0);"></line><line class="tick" x1="636.4809228498556" y1="865" x2="636.4809228498556" y2="905" style="stroke: rgb(0, 0, 0);"></line><line class="tick" x1="630.6548505288779" y1="865" x2="630.6548505288779" y2="905" style="stroke: rgb(0, 0, 0);"></line><line class="tick" x1="624.8287782079001" y1="865" x2="624.8287782079001" y2="905" style="stroke: rgb(0, 0, 0);"></line><line class="tick" x1="619.0027058869224" y1="865" x2="619.0027058869224" y2="905" style="stroke: rgb(0, 0, 0);"></line><line class="tick" x1="613.1766335659446" y1="865" x2="613.1766335659446" y2="905" style="stroke: rgb(0, 0, 0);"></line><line class="tick" x1="607.3505612449669" y1="860" x2="607.3505612449669" y2="910" style="stroke: rgb(0, 0, 0);"></line><line class="tick" x1="601.5244889239891" y1="865" x2="601.5244889239891" y2="905" style="stroke: rgb(0, 0, 0);"></line><line class="tick" x1="595.6984166030113" y1="865" x2="595.6984166030113" y2="905" style="stroke: rgb(0, 0, 0);"></line><line class="tick" x1="589.8723442820336" y1="865" x2="589.8723442820336" y2="905" style="stroke: rgb(0, 0, 0);"></line><line class="tick" x1="584.0462719610558" y1="865" x2="584.0462719610558" y2="905" style="stroke: rgb(0, 0, 0);"></line><line class="tick" x1="578.2201996400781" y1="865" x2="578.2201996400781" y2="905" style="stroke: rgb(0, 0, 0);"></line><line class="tick" x1="572.3941273191003" y1="865" x2="572.3941273191003" y2="905" style="stroke: rgb(0, 0, 0);"></line><line class="tick" x1="566.5680549981228" y1="865" x2="566.5680549981228" y2="905" style="stroke: rgb(0, 0, 0);"></line><line class="tick" x1="560.741982677145" y1="865" x2="560.741982677145" y2="905" style="stroke: rgb(0, 0, 0);"></line><line class="tick" x1="554.9159103561672" y1="865" x2="554.9159103561672" y2="905" style="stroke: rgb(0, 0, 0);"></line><line class="tick" x1="549.0898380351895" y1="860" x2="549.0898380351895" y2="910" style="stroke: rgb(0, 0, 0);"></line><line class="tick" x1="543.2637657142117" y1="865" x2="543.2637657142117" y2="905" style="stroke: rgb(0, 0, 0);"></line><line class="tick" x1="537.4376933932339" y1="865" x2="537.4376933932339" y2="905" style="stroke: rgb(0, 0, 0);"></line><line class="tick" x1="531.6116210722562" y1="865" x2="531.6116210722562" y2="905" style="stroke: rgb(0, 0, 0);"></line><line class="tick" x1="525.7855487512784" y1="865" x2="525.7855487512784" y2="905" style="stroke: rgb(0, 0, 0);"></line><line class="tick" x1="519.9594764303007" y1="865" x2="519.9594764303007" y2="905" style="stroke: rgb(0, 0, 0);"></line><line class="tick" x1="514.1334041093229" y1="865" x2="514.1334041093229" y2="905" style="stroke: rgb(0, 0, 0);"></line><line class="tick" x1="508.30733178834527" y1="865" x2="508.30733178834527" y2="905" style="stroke: rgb(0, 0, 0);"></line><line class="tick" x1="502.4812594673675" y1="865" x2="502.4812594673675" y2="905" style="stroke: rgb(0, 0, 0);"></line><line class="tick" x1="496.6551871463897" y1="865" x2="496.6551871463897" y2="905" style="stroke: rgb(0, 0, 0);"></line><line class="tick" x1="490.829114825412" y1="860" x2="490.829114825412" y2="910" style="stroke: rgb(0, 0, 0);"></line><line class="tick" x1="485.00304250443423" y1="865" x2="485.00304250443423" y2="905" style="stroke: rgb(0, 0, 0);"></line></g><g class="karyoGroup"><rect class="karyo" id="Arabidopsis_thaliana_NC_000932.fasta, seq0" x="0" y="0" width="900" height="30" style="fill: rgb(29, 145, 192);"></rect><rect class="karyo" id="Spinacia_oleracea_NC_002202.fasta, seq1" x="0" y="435" width="878.1347505793705" height="30" style="fill: rgb(29, 145, 192);"></rect><rect class="karyo" id="fcg.fa, seq2" x="0" y="870" width="881.1759603309208" height="30" style="fill: rgb(29, 145, 192);"></rect></g><g class="linkGroup"><path class="link" id="link000027" d="M0.023304289283910977,50C0.023304289283910977,232.5 0.005826072320977743,232.5 0.005826072320977743,415L252.39127901707684,415C252.39127901707684,232.5 260.6409974235813,232.5 260.6409974235813,50Z" style="fill: rgb(250, 212, 7); opacity: 0.9;"></path><path class="link" id="link000028" d="M231.56889654190243,50C231.56889654190243,232.5 211.06112197206073,232.5 211.06112197206073,415L222.5559626613498,415C222.5559626613498,232.5 242.99382436333977,232.5 242.99382436333977,50Z" style="fill: rgb(210, 20, 20); opacity: 0.9;"></path><path class="link" id="link000029" d="M218.6641463509367,50C218.6641463509367,232.5 223.96587216302646,232.5 223.96587216302646,415L235.64132109426586,415C235.64132109426586,232.5 230.3920299330649,232.5 230.3920299330649,50Z" style="fill: rgb(210, 20, 20); opacity: 0.9;"></path><path class="link" id="link000030" d="M575.8082056991934,50C575.8082056991934,232.5 246.594337057704,232.5 246.594337057704,415L246.85068423982705,415C246.85068423982705,232.5 576.0645528813164,232.5 576.0645528813164,50Z" style="fill: rgb(196, 221, 6); opacity: 0.9;"></path><path class="link" id="link000031" d="M260.76917101464284,50C260.76917101464284,232.5 256.05587850697185,232.5 256.05587850697185,415L485.70217118295153,415C485.70217118295153,232.5 493.9111070832093,232.5 493.9111070832093,50Z" style="fill: rgb(244, 186, 9); opacity: 0.9;"></path><path class="link" id="link000032" d="M497.8553580445112,50C497.8553580445112,232.5 485.6730408213467,232.5 485.6730408213467,415L560.6138090860835,415C560.6138090860835,232.5 576.2626393402297,232.5 576.2626393402297,50Z" style="fill: rgb(110, 196, 8); opacity: 0.9;"></path><path class="link" id="link000033" d="M519.0040005696604,50C519.0040005696604,232.5 504.04847292171047,232.5 504.04847292171047,415L504.58447157524046,415C504.58447157524046,232.5 519.5458252955113,232.5 519.5458252955113,50Z" style="fill: rgb(250, 214, 7); opacity: 0.9;"></path><path class="link" id="link000034" d="M701.3542381439429,50C701.3542381439429,232.5 559.9612889861339,232.5 559.9612889861339,415L560.3865922655654,415C560.3865922655654,232.5 701.7853674956951,232.5 701.7853674956951,50Z" style="fill: rgb(211, 24, 20); opacity: 0.9;"></path><path class="link" id="link000035" d="M255.12953300793643,50C255.12953300793643,232.5 560.1593754450471,232.5 560.1593754450471,415L560.4098965548492,415C560.4098965548492,232.5 255.38005411773844,232.5 255.38005411773844,50Z" style="fill: rgb(200, 222, 6); opacity: 0.9;"></path><path class="link" id="link000036" d="M578.0745478320538,50C578.0745478320538,232.5 560.2584186745038,232.5 560.2584186745038,415L799.8090342961457,415C799.8090342961457,232.5 812.3117854969639,232.5 812.3117854969639,50Z" style="fill: rgb(219, 228, 6); opacity: 0.9;"></path><path class="link" id="link000037" d="M575.6567278188479,50C575.6567278188479,232.5 688.3446186511995,232.5 688.3446186511995,415L688.729139424384,415C688.729139424384,232.5 576.0295964473905,232.5 576.0295964473905,50Z" style="fill: rgb(191, 220, 6); opacity: 0.9;"></path><path class="link" id="link000038" d="M255.07709835704762,50C255.07709835704762,232.5 688.455314025298,232.5 688.455314025298,415L689.1253123422106,415C689.1253123422106,232.5 255.82866168645376,232.5 255.82866168645376,50Z" style="fill: rgb(222, 80, 16); opacity: 0.9;"></path><path class="link" id="link000039" d="M814.1236939887881,50C814.1236939887881,232.5 799.453643884566,232.5 799.453643884566,415L878.1347505793705,415C878.1347505793705,232.5 895.4614896619584,232.5 895.4614896619584,50Z" style="fill: rgb(130, 202, 8); opacity: 0.9;"></path><path class="link" id="link000040" d="M870.8405080335064,50C870.8405080335064,232.5 855.482981395409,232.5 855.482981395409,415L856.0189800489389,415C856.0189800489389,232.5 871.3823327593574,232.5 871.3823327593574,50Z" style="fill: rgb(250, 214, 7); opacity: 0.9;"></path><path class="link" id="link000041" d="M896.4752262458085,50C896.4752262458085,232.5 874.3652817876978,232.5 874.3652817876978,415L877.9541423374202,415C877.9541423374202,232.5 900,232.5 900,50Z" style="fill: rgb(134, 203, 8); opacity: 0.9;"></path><path class="link" id="link000042" d="M814.5781276298244,50C814.5781276298244,232.5 246.594337057704,232.5 246.594337057704,415L246.85068423982705,415C246.85068423982705,232.5 814.3217804477014,232.5 814.3217804477014,50Z" style="fill: rgb(196, 221, 6); opacity: 0.9;"></path><path class="link" id="link000043" d="M303.68984580328595,50C303.68984580328595,232.5 265.11542096609224,232.5 265.11542096609224,415L265.52907210088165,415C265.52907210088165,232.5 303.2761946684965,232.5 303.2761946684965,50Z" style="fill: rgb(210, 20, 20); opacity: 0.9;"></path><path class="link" id="link000044" d="M269.65393130413395,50C269.65393130413395,232.5 296.31403824492804,232.5 296.31403824492804,415L296.71603723507553,415C296.71603723507553,232.5 269.25193231398646,232.5 269.25193231398646,50Z" style="fill: rgb(214, 41, 19); opacity: 0.9;"></path><path class="link" id="link000045" d="M900,50C900,232.5 482.1133106332293,232.5 482.1133106332293,415L485.70217118295153,415C485.70217118295153,232.5 896.4752262458085,232.5 896.4752262458085,50Z" style="fill: rgb(134, 203, 8); opacity: 0.9;"></path><path class="link" id="link000046" d="M892.5309752845066,50C892.5309752845066,232.5 485.6730408213467,232.5 485.6730408213467,415L560.6138090860835,415C560.6138090860835,232.5 814.1236939887881,232.5 814.1236939887881,50Z" style="fill: rgb(110, 196, 8); opacity: 0.9;"></path><path class="link" id="link000047" d="M871.3823327593574,50C871.3823327593574,232.5 504.04847292171047,232.5 504.04847292171047,415L504.58447157524046,415C504.58447157524046,232.5 870.8405080335064,232.5 870.8405080335064,50Z" style="fill: rgb(250, 214, 7); opacity: 0.9;"></path><path class="link" id="link000048" d="M812.3117854969639,50C812.3117854969639,232.5 560.2584186745038,232.5 560.2584186745038,415L628.1205090692525,415C628.1205090692525,232.5 744.5370861870298,232.5 744.5370861870298,50Z" style="fill: rgb(123, 200, 8); opacity: 0.9;"></path><path class="link" id="link000049" d="M814.7296055101697,50C814.7296055101697,232.5 688.3446186511995,232.5 688.3446186511995,415L688.729139424384,415C688.729139424384,232.5 814.3567368816272,232.5 814.3567368816272,50Z" style="fill: rgb(191, 220, 6); opacity: 0.9;"></path><path class="link" id="link000050" d="M643.3382099716465,50C643.3382099716465,232.5 734.4521549994173,232.5 734.4521549994173,415L799.8090342961457,415C799.8090342961457,232.5 578.0745478320538,232.5 578.0745478320538,50Z" style="fill: rgb(110, 196, 8); opacity: 0.9;"></path><path class="link" id="link000051" d="M576.2626393402297,50C576.2626393402297,232.5 799.453643884566,232.5 799.453643884566,415L878.1347505793705,415C878.1347505793705,232.5 494.92484366705935,232.5 494.92484366705935,50Z" style="fill: rgb(130, 202, 8); opacity: 0.9;"></path><path class="link" id="link000052" d="M255.38005411773844,50C255.38005411773844,232.5 799.6575564158002,232.5 799.6575564158002,415L799.9080775256023,415C799.9080775256023,232.5 255.12953300793643,232.5 255.12953300793643,50Z" style="fill: rgb(200, 222, 6); opacity: 0.9;"></path><path class="link" id="link000053" d="M701.7853674956951,50C701.7853674956951,232.5 799.6808607050841,232.5 799.6808607050841,415L800.1061639845155,415C800.1061639845155,232.5 701.3542381439429,232.5 701.3542381439429,50Z" style="fill: rgb(211, 24, 20); opacity: 0.9;"></path><path class="link" id="link000054" d="M519.5458252955113,50C519.5458252955113,232.5 855.482981395409,232.5 855.482981395409,415L856.0189800489389,415C856.0189800489389,232.5 519.0040005696604,232.5 519.0040005696604,50Z" style="fill: rgb(250, 214, 7); opacity: 0.9;"></path><path class="link" id="link000055" d="M493.9111070832093,50C493.9111070832093,232.5 874.3652817876978,232.5 874.3652817876978,415L878.1347505793705,415C878.1347505793705,232.5 490.2057250870674,232.5 490.2057250870674,50Z" style="fill: rgb(131, 202, 8); opacity: 0.9;"></path><path class="link" id="link000116" d="M877.4006654669273,485C877.4006654669273,667.5 483.55817656883175,667.5 483.55817656883175,850L482.8240914563886,850C482.8240914563886,667.5 878.1347505793705,667.5 878.1347505793705,485Z" style="fill: rgb(29, 173, 10); opacity: 0.9;"></path><path class="link" id="link000117" d="M424.51093359572235,485C424.51093359572235,667.5 425.6761480599179,667.5 425.6761480599179,850L425.40232266083194,850C425.40232266083194,667.5 424.78475899480827,667.5 424.78475899480827,485Z" style="fill: rgb(155, 209, 7); opacity: 0.9;"></path><path class="link" id="link000118" d="M265.11542096609224,485C265.11542096609224,667.5 297.6074263001851,667.5 297.6074263001851,850L297.2054273100377,850C297.2054273100377,667.5 265.5174199562397,667.5 265.5174199562397,485Z" style="fill: rgb(214, 41, 19); opacity: 0.9;"></path><path class="link" id="link000119" d="M296.31403824492804,485C296.31403824492804,667.5 266.40880902134927,667.5 266.40880902134927,850L266.0068100312018,850C266.0068100312018,667.5 296.71603723507553,667.5 296.71603723507553,485Z" style="fill: rgb(214, 41, 19); opacity: 0.9;"></path><path class="link" id="link000120" d="M799.6517303434792,485C799.6517303434792,667.5 247.7420733049366,667.5 247.7420733049366,850L247.48572612281362,850C247.48572612281362,667.5 799.9080775256023,667.5 799.9080775256023,485Z" style="fill: rgb(196, 221, 6); opacity: 0.9;"></path><path class="link" id="link000121" d="M237.73288105749683,485C237.73288105749683,667.5 239.45739846450627,667.5 239.45739846450627,850L238.61261797796445,850C238.61261797796445,667.5 238.57766154403865,667.5 238.57766154403865,485Z" style="fill: rgb(225, 93, 15); opacity: 0.9;"></path><path class="link" id="link000123" d="M163.61941506233896,485C163.61941506233896,667.5 164.77297738189256,667.5 164.77297738189256,850L164.48749983816467,850C164.48749983816467,667.5 163.90489260606685,667.5 163.90489260606685,485Z" style="fill: rgb(150, 208, 7); opacity: 0.9;"></path><path class="link" id="link000124" d="M185.73518559277048,485C185.73518559277048,667.5 6.129028081668591,667.5 6.129028081668591,850L3.029557606908461,850C3.029557606908461,667.5 188.78222141664182,667.5 188.78222141664182,485Z" style="fill: rgb(210, 20, 20); opacity: 0.9;"></path><path class="link" id="link000125" d="M481.932702391279,485C481.932702391279,667.5 0.8564326311837522,667.5 0.8564326311837522,850L0.09904322945663706,850C0.09904322945663706,667.5 482.6900917930061,667.5 482.6900917930061,485Z" style="fill: rgb(52, 180, 9); opacity: 0.9;"></path><path class="link" id="link000126" d="M482.0492238376985,485C482.0492238376985,667.5 881.1759603309208,667.5 881.1759603309208,850L735.1978922565025,850C735.1978922565025,667.5 628.0272919121169,667.5 628.0272919121169,485Z" style="fill: rgb(29, 173, 10); opacity: 0.9;"></path><path class="link" id="link000126" d="M481.926876318958,485C481.926876318958,667.5 0.12234751874049411,667.5 0.12234751874049411,850L0,850C0,667.5 482.0492238376985,667.5 482.0492238376985,485Z" style="fill: rgb(29, 173, 10); opacity: 0.9;"></path><path class="link" id="link000127" d="M504.1882986574139,485C504.1882986574139,667.5 859.1767112469089,667.5 859.1767112469089,850L858.7397558228355,850C858.7397558228355,667.5 504.6077758645244,667.5 504.6077758645244,485Z" style="fill: rgb(255, 237, 5); opacity: 0.9;"></path><path class="link" id="link000128" d="M504.04847292171047,485C504.04847292171047,667.5 859.0368855112054,667.5 859.0368855112054,850L858.617408304095,850C858.617408304095,667.5 504.4854283457838,667.5 504.4854283457838,485Z" style="fill: rgb(255, 237, 5); opacity: 0.9;"></path><path class="link" id="link000129" d="M688.3446186511995,485C688.3446186511995,667.5 803.2172866039176,667.5 803.2172866039176,850L802.8444179753751,850C802.8444179753751,667.5 688.729139424384,667.5 688.729139424384,485Z" style="fill: rgb(191, 220, 6); opacity: 0.9;"></path><path class="link" id="link000130" d="M246.594337057704,485C246.594337057704,667.5 803.0658087235722,667.5 803.0658087235722,850L802.8094615414492,850C802.8094615414492,667.5 246.85068423982705,667.5 246.85068423982705,485Z" style="fill: rgb(196, 221, 6); opacity: 0.9;"></path><path class="link" id="link000131" d="M627.2524242934269,485C627.2524242934269,667.5 735.2328486904283,667.5 735.2328486904283,850L734.4812853610222,850C734.4812853610222,667.5 628.003987622833,667.5 628.003987622833,485Z" style="fill: rgb(29, 173, 10); opacity: 0.9;"></path><path class="link" id="link000132" d="M799.6866867774052,485C799.6866867774052,667.5 691.1411333652687,667.5 691.1411333652687,850L690.7566125920841,850C690.7566125920841,667.5 800.0595554059478,667.5 800.0595554059478,485Z" style="fill: rgb(191, 220, 6); opacity: 0.9;"></path><path class="link" id="link000133" d="M670.1206644311811,485C670.1206644311811,667.5 672.8123098434728,667.5 672.8123098434728,850L672.532658372066,850C672.532658372066,667.5 670.4003159025881,667.5 670.4003159025881,485Z" style="fill: rgb(244, 235, 5); opacity: 0.9;"></path><path class="link" id="link000134" d="M659.9832985926798,485C659.9832985926798,667.5 663.572159142402,667.5 663.572159142402,850L662.3952925335647,850C662.3952925335647,667.5 661.1601652015173,667.5 661.1601652015173,485Z" style="fill: rgb(210, 20, 20); opacity: 0.9;"></path><path class="link" id="link000135" d="M730.4612954595476,485C730.4612954595476,667.5 631.3131967011483,667.5 631.3131967011483,850L483.5640026411527,850C483.5640026411527,667.5 878.1347505793705,667.5 878.1347505793705,485Z" style="fill: rgb(34, 175, 10); opacity: 0.9;"></path><path class="link" id="link000136" d="M732.0634653478164,485C732.0634653478164,667.5 630.3751990574708,667.5 630.3751990574708,850L629.6236357280648,850C629.6236357280648,667.5 732.8150286772226,667.5 732.8150286772226,485Z" style="fill: rgb(29, 173, 10); opacity: 0.9;"></path><path class="link" id="link000137" d="M855.5820246248657,485C855.5820246248657,667.5 506.23907611439813,667.5 506.23907611439813,850L505.81959890728774,850C505.81959890728774,667.5 856.0189800489389,667.5 856.0189800489389,485Z" style="fill: rgb(255, 237, 5); opacity: 0.9;"></path><path class="link" id="link000138" d="M855.459677106125,485C855.459677106125,667.5 506.1167285956576,667.5 506.1167285956576,850L505.67977317158426,850C505.67977317158426,667.5 855.8791543132354,667.5 855.8791543132354,485Z" style="fill: rgb(255, 237, 5); opacity: 0.9;"></path><path class="link" id="link000139" d="M482.6667875037222,485C482.6667875037222,667.5 483.55817656883175,667.5 483.55817656883175,850L0.8622587035046676,850C0.8622587035046676,667.5 0.005826072320977743,667.5 0.005826072320977743,485Z" style="fill: rgb(29, 173, 10); opacity: 0.9;"></path><path class="link" id="link000140" d="M689.1835730654202,485C689.1835730654202,667.5 468.6842139333756,667.5 468.6842139333756,850L467.77534665130304,850C467.77534665130304,667.5 688.2805318556688,667.5 688.2805318556688,485Z" style="fill: rgb(210, 20, 20); opacity: 0.9;"></path><path class="link" id="link000141" d="M688.8980955216924,485C688.8980955216924,667.5 247.8585947513562,667.5 247.8585947513562,850L247.42746539960376,850C247.42746539960376,667.5 688.449487952977,667.5 688.449487952977,485Z" style="fill: rgb(251, 217, 6); opacity: 0.9;"></path><path class="link" id="link000142" d="M560.4157226271701,485C560.4157226271701,667.5 247.7420733049366,667.5 247.7420733049366,850L247.48572612281362,850C247.48572612281362,667.5 560.1593754450471,667.5 560.1593754450471,485Z" style="fill: rgb(196, 221, 6); opacity: 0.9;"></path><path class="link" id="link000143" d="M222.78900555418892,485C222.78900555418892,667.5 236.52105801473343,667.5 236.52105801473343,850L224.84560908349403,850C224.84560908349403,667.5 211.06112197206073,667.5 211.06112197206073,485Z" style="fill: rgb(210, 20, 20); opacity: 0.9;"></path><path class="link" id="link000144" d="M235.64132109426586,485C235.64132109426586,667.5 223.6687424746565,667.5 223.6687424746565,850L211.9408588925284,850C211.9408588925284,667.5 223.96587216302646,667.5 223.96587216302646,485Z" style="fill: rgb(210, 20, 20); opacity: 0.9;"></path><path class="link" id="link000145" d="M878.1347505793705,485C878.1347505793705,667.5 0.8564326311837522,667.5 0.8564326311837522,850L0.09904322945663706,850C0.09904322945663706,667.5 877.3773611776434,667.5 877.3773611776434,485Z" style="fill: rgb(52, 180, 9); opacity: 0.9;"></path><path class="link" id="link000146" d="M878.0186763273342,485C878.0186763273342,667.5 881.1759603309208,667.5 881.1759603309208,850L483.5640026411527,850C483.5640026411527,667.5 481.932702391279,667.5 481.932702391279,485Z" style="fill: rgb(29, 173, 10); opacity: 0.9;"></path><path class="link" id="link000146" d="M878.1347505793705,485C878.1347505793705,667.5 0.11652144641957876,667.5 0.11652144641957876,850L0,850C0,667.5 878.0186763273342,667.5 878.0186763273342,485Z" style="fill: rgb(29, 173, 10); opacity: 0.9;"></path><path class="link" id="link000147" d="M855.8791543132354,485C855.8791543132354,667.5 859.1767112469089,667.5 859.1767112469089,850L858.7397558228355,850C858.7397558228355,667.5 855.459677106125,667.5 855.459677106125,485Z" style="fill: rgb(255, 237, 5); opacity: 0.9;"></path><path class="link" id="link000148" d="M856.0189800489389,485C856.0189800489389,667.5 859.0368855112054,667.5 859.0368855112054,850L858.617408304095,850C858.617408304095,667.5 855.5820246248657,667.5 855.5820246248657,485Z" style="fill: rgb(255, 237, 5); opacity: 0.9;"></path><path class="link" id="link000149" d="M468.36377995572184,485C468.36377995572184,667.5 692.4228692758838,667.5 692.4228692758838,850L690.6925257965536,850C690.6925257965536,667.5 466.8839575861935,667.5 466.8839575861935,485Z" style="fill: rgb(210, 20, 20); opacity: 0.9;"></path><path class="link" id="link000150" d="M246.9672056862466,485C246.9672056862466,667.5 691.3100894625771,667.5 691.3100894625771,850L690.8614818938619,850C690.8614818938619,667.5 246.5360763344942,667.5 246.5360763344942,485Z" style="fill: rgb(251, 217, 6); opacity: 0.9;"></path><path class="link" id="link000151" d="M560.3807661932443,485C560.3807661932443,667.5 691.1411333652687,667.5 691.1411333652687,850L690.7566125920841,850C690.7566125920841,667.5 560.0078975647017,667.5 560.0078975647017,485Z" style="fill: rgb(191, 220, 6); opacity: 0.9;"></path><path class="link" id="link000152" d="M246.85068423982705,485C246.85068423982705,667.5 562.0470228770439,667.5 562.0470228770439,850L561.7906756949209,850C561.7906756949209,667.5 246.594337057704,667.5 246.594337057704,485Z" style="fill: rgb(196, 221, 6); opacity: 0.9;"></path><path class="link" id="link000153" d="M688.729139424384,485C688.729139424384,667.5 562.012066443118,667.5 562.012066443118,850L561.6391978145755,850C561.6391978145755,667.5 688.3446186511995,667.5 688.3446186511995,485Z" style="fill: rgb(191, 220, 6); opacity: 0.9;"></path><path class="link" id="link000154" d="M504.4854283457838,485C504.4854283457838,667.5 506.23907611439813,667.5 506.23907611439813,850L505.81959890728774,850C505.81959890728774,667.5 504.04847292171047,667.5 504.04847292171047,485Z" style="fill: rgb(255, 237, 5); opacity: 0.9;"></path><path class="link" id="link000155" d="M504.6077758645244,485C504.6077758645244,667.5 506.1167285956576,667.5 506.1167285956576,850L505.67977317158426,850C505.67977317158426,667.5 504.1882986574139,667.5 504.1882986574139,485Z" style="fill: rgb(255, 237, 5); opacity: 0.9;"></path></g><g class="tickLabelGroup"><text class="tickLabel" x="-3" y="-10" font-size="10px" fill="#000000">0 bp</text><text class="tickLabel" x="55.260723209777446" y="-10" font-size="10px" fill="#000000">10000 bp</text><text class="tickLabel" x="113.52144641955489" y="-10" font-size="10px" fill="#000000">20000 bp</text><text class="tickLabel" x="171.78216962933232" y="-10" font-size="10px" fill="#000000">30000 bp</text><text class="tickLabel" x="230.04289283910978" y="-10" font-size="10px" fill="#000000">40000 bp</text><text class="tickLabel" x="288.3036160488872" y="-10" font-size="10px" fill="#000000">50000 bp</text><text class="tickLabel" x="346.56433925866463" y="-10" font-size="10px" fill="#000000">60000 bp</text><text class="tickLabel" x="404.8250624684421" y="-10" font-size="10px" fill="#000000">70000 bp</text><text class="tickLabel" x="463.08578567821957" y="-10" font-size="10px" fill="#000000">80000 bp</text><text class="tickLabel" x="521.346508887997" y="-10" font-size="10px" fill="#000000">90000 bp</text><text class="tickLabel" x="579.6072320977744" y="-10" font-size="10px" fill="#000000">100000 bp</text><text class="tickLabel" x="637.8679553075518" y="-10" font-size="10px" fill="#000000">110000 bp</text><text class="tickLabel" x="696.1286785173293" y="-10" font-size="10px" fill="#000000">120000 bp</text><text class="tickLabel" x="754.3894017271068" y="-10" font-size="10px" fill="#000000">130000 bp</text><text class="tickLabel" x="812.6501249368843" y="-10" font-size="10px" fill="#000000">140000 bp</text><text class="tickLabel" x="870.9108481466617" y="-10" font-size="10px" fill="#000000">150000 bp</text><text class="tickLabel" x="-3" y="425" font-size="10px" fill="#000000">0 bp</text><text class="tickLabel" x="55.26072320977744" y="425" font-size="10px" fill="#000000">10000 bp</text><text class="tickLabel" x="113.52144641955488" y="425" font-size="10px" fill="#000000">20000 bp</text><text class="tickLabel" x="171.78216962933232" y="425" font-size="10px" fill="#000000">30000 bp</text><text class="tickLabel" x="230.04289283910975" y="425" font-size="10px" fill="#000000">40000 bp</text><text class="tickLabel" x="288.3036160488872" y="425" font-size="10px" fill="#000000">50000 bp</text><text class="tickLabel" x="346.56433925866463" y="425" font-size="10px" fill="#000000">60000 bp</text><text class="tickLabel" x="404.82506246844207" y="425" font-size="10px" fill="#000000">70000 bp</text><text class="tickLabel" x="463.0857856782195" y="425" font-size="10px" fill="#000000">80000 bp</text><text class="tickLabel" x="521.346508887997" y="425" font-size="10px" fill="#000000">90000 bp</text><text class="tickLabel" x="579.6072320977744" y="425" font-size="10px" fill="#000000">100000 bp</text><text class="tickLabel" x="637.8679553075518" y="425" font-size="10px" fill="#000000">110000 bp</text><text class="tickLabel" x="696.1286785173293" y="425" font-size="10px" fill="#000000">120000 bp</text><text class="tickLabel" x="754.3894017271067" y="425" font-size="10px" fill="#000000">130000 bp</text><text class="tickLabel" x="812.6501249368841" y="425" font-size="10px" fill="#000000">140000 bp</text><text class="tickLabel" x="870.9108481466616" y="425" font-size="10px" fill="#000000">150000 bp</text><text class="tickLabel" x="480.5640026411527" y="860" font-size="10px" fill="#000000">0 bp</text><text class="tickLabel" x="422.3032794313753" y="860" font-size="10px" fill="#000000">10000 bp</text><text class="tickLabel" x="364.04255622159786" y="860" font-size="10px" fill="#000000">20000 bp</text><text class="tickLabel" x="305.7818330118204" y="860" font-size="10px" fill="#000000">30000 bp</text><text class="tickLabel" x="247.521109802043" y="860" font-size="10px" fill="#000000">40000 bp</text><text class="tickLabel" x="189.26038659226555" y="860" font-size="10px" fill="#000000">50000 bp</text><text class="tickLabel" x="130.99966338248808" y="860" font-size="10px" fill="#000000">60000 bp</text><text class="tickLabel" x="72.73894017271064" y="860" font-size="10px" fill="#000000">70000 bp</text><text class="tickLabel" x="14.478216962933196" y="860" font-size="10px" fill="#000000">80000 bp</text><text class="tickLabel" x="837.3934540840766" y="860" font-size="10px" fill="#000000">90000 bp</text><text class="tickLabel" x="779.1327308742992" y="860" font-size="10px" fill="#000000">100000 bp</text><text class="tickLabel" x="720.8720076645218" y="860" font-size="10px" fill="#000000">110000 bp</text><text class="tickLabel" x="662.6112844547444" y="860" font-size="10px" fill="#000000">120000 bp</text><text class="tickLabel" x="604.3505612449669" y="860" font-size="10px" fill="#000000">130000 bp</text><text class="tickLabel" x="546.0898380351895" y="860" font-size="10px" fill="#000000">140000 bp</text><text class="tickLabel" x="487.829114825412" y="860" font-size="10px" fill="#000000">150000 bp</text><text class="tickLabel" x="-3" y="46" font-size="10px" fill="#000000">0 bp</text><text class="tickLabel" x="55.260723209777446" y="46" font-size="10px" fill="#000000">10000 bp</text><text class="tickLabel" x="113.52144641955489" y="46" font-size="10px" fill="#000000">20000 bp</text><text class="tickLabel" x="171.78216962933232" y="46" font-size="10px" fill="#000000">30000 bp</text><text class="tickLabel" x="230.04289283910978" y="46" font-size="10px" fill="#000000">40000 bp</text><text class="tickLabel" x="288.3036160488872" y="46" font-size="10px" fill="#000000">50000 bp</text><text class="tickLabel" x="346.56433925866463" y="46" font-size="10px" fill="#000000">60000 bp</text><text class="tickLabel" x="404.8250624684421" y="46" font-size="10px" fill="#000000">70000 bp</text><text class="tickLabel" x="463.08578567821957" y="46" font-size="10px" fill="#000000">80000 bp</text><text class="tickLabel" x="521.346508887997" y="46" font-size="10px" fill="#000000">90000 bp</text><text class="tickLabel" x="579.6072320977744" y="46" font-size="10px" fill="#000000">100000 bp</text><text class="tickLabel" x="637.8679553075518" y="46" font-size="10px" fill="#000000">110000 bp</text><text class="tickLabel" x="696.1286785173293" y="46" font-size="10px" fill="#000000">120000 bp</text><text class="tickLabel" x="754.3894017271068" y="46" font-size="10px" fill="#000000">130000 bp</text><text class="tickLabel" x="812.6501249368843" y="46" font-size="10px" fill="#000000">140000 bp</text><text class="tickLabel" x="870.9108481466617" y="46" font-size="10px" fill="#000000">150000 bp</text><text class="tickLabel" x="-3" y="481" font-size="10px" fill="#000000">0 bp</text><text class="tickLabel" x="55.26072320977744" y="481" font-size="10px" fill="#000000">10000 bp</text><text class="tickLabel" x="113.52144641955488" y="481" font-size="10px" fill="#000000">20000 bp</text><text class="tickLabel" x="171.78216962933232" y="481" font-size="10px" fill="#000000">30000 bp</text><text class="tickLabel" x="230.04289283910975" y="481" font-size="10px" fill="#000000">40000 bp</text><text class="tickLabel" x="288.3036160488872" y="481" font-size="10px" fill="#000000">50000 bp</text><text class="tickLabel" x="346.56433925866463" y="481" font-size="10px" fill="#000000">60000 bp</text><text class="tickLabel" x="404.82506246844207" y="481" font-size="10px" fill="#000000">70000 bp</text><text class="tickLabel" x="463.0857856782195" y="481" font-size="10px" fill="#000000">80000 bp</text><text class="tickLabel" x="521.346508887997" y="481" font-size="10px" fill="#000000">90000 bp</text><text class="tickLabel" x="579.6072320977744" y="481" font-size="10px" fill="#000000">100000 bp</text><text class="tickLabel" x="637.8679553075518" y="481" font-size="10px" fill="#000000">110000 bp</text><text class="tickLabel" x="696.1286785173293" y="481" font-size="10px" fill="#000000">120000 bp</text><text class="tickLabel" x="754.3894017271067" y="481" font-size="10px" fill="#000000">130000 bp</text><text class="tickLabel" x="812.6501249368841" y="481" font-size="10px" fill="#000000">140000 bp</text><text class="tickLabel" x="870.9108481466616" y="481" font-size="10px" fill="#000000">150000 bp</text><text class="tickLabel" x="480.5640026411527" y="916" font-size="10px" fill="#000000">0 bp</text><text class="tickLabel" x="422.3032794313753" y="916" font-size="10px" fill="#000000">10000 bp</text><text class="tickLabel" x="364.04255622159786" y="916" font-size="10px" fill="#000000">20000 bp</text><text class="tickLabel" x="305.7818330118204" y="916" font-size="10px" fill="#000000">30000 bp</text><text class="tickLabel" x="247.521109802043" y="916" font-size="10px" fill="#000000">40000 bp</text><text class="tickLabel" x="189.26038659226555" y="916" font-size="10px" fill="#000000">50000 bp</text><text class="tickLabel" x="130.99966338248808" y="916" font-size="10px" fill="#000000">60000 bp</text><text class="tickLabel" x="72.73894017271064" y="916" font-size="10px" fill="#000000">70000 bp</text><text class="tickLabel" x="14.478216962933196" y="916" font-size="10px" fill="#000000">80000 bp</text><text class="tickLabel" x="837.3934540840766" y="916" font-size="10px" fill="#000000">90000 bp</text><text class="tickLabel" x="779.1327308742992" y="916" font-size="10px" fill="#000000">100000 bp</text><text class="tickLabel" x="720.8720076645218" y="916" font-size="10px" fill="#000000">110000 bp</text><text class="tickLabel" x="662.6112844547444" y="916" font-size="10px" fill="#000000">120000 bp</text><text class="tickLabel" x="604.3505612449669" y="916" font-size="10px" fill="#000000">130000 bp</text><text class="tickLabel" x="546.0898380351895" y="916" font-size="10px" fill="#000000">140000 bp</text><text class="tickLabel" x="487.829114825412" y="916" font-size="10px" fill="#000000">150000 bp</text></g><g class="featureGroup"></g></g><g class="genomeLabelGroup" transform="translate(200, 0)"><text class="genomeLabel" x="100" y="27" font-family="sans-serif" font-size="25px" fill="#000000" style="text-anchor: middle;">Arabidopsis_thaliana_NC_000932.fasta</text><text class="genomeLabel" x="100" y="462" font-family="sans-serif" font-size="25px" fill="#000000" style="text-anchor: middle;">Spinacia_oleracea_NC_002202.fasta</text><text class="genomeLabel" x="100" y="897" font-family="sans-serif" font-size="25px" fill="#000000" style="text-anchor: middle;">fcg.fa</text></g></svg>